<mxfile host="app.diagrams.net" modified="2021-06-13T05:27:49.786Z" agent="5.0 (Windows NT 10.0; Win64; x64) AppleWebKit/537.36 (KHTML, like Gecko) Chrome/88.0.4324.182 Safari/537.36" etag="0MESckoNWCLWDX4jgJi2" version="14.7.7" type="github" pages="4">
  <diagram id="YSC3pREoGRcZrgKI42a8" name="Page-1">
    <mxGraphModel dx="1048" dy="688" grid="1" gridSize="10" guides="1" tooltips="1" connect="1" arrows="1" fold="1" page="1" pageScale="1" pageWidth="3300" pageHeight="4681" math="0" shadow="0">
      <root>
        <mxCell id="0" />
        <mxCell id="1" parent="0" />
        <mxCell id="8ukBdOk7Lgif3fbABD3o-3" value="" style="edgeStyle=orthogonalEdgeStyle;rounded=0;orthogonalLoop=1;jettySize=auto;html=1;" parent="1" source="8ukBdOk7Lgif3fbABD3o-1" target="8ukBdOk7Lgif3fbABD3o-2" edge="1">
          <mxGeometry relative="1" as="geometry" />
        </mxCell>
        <mxCell id="8ukBdOk7Lgif3fbABD3o-1" value="FUNCTION bookcar_menu(user_data, data_clients, data_carlist, data_transactions)" style="shape=process;whiteSpace=wrap;html=1;backgroundOutline=1;" parent="1" vertex="1">
          <mxGeometry x="560" y="170" width="310" height="60" as="geometry" />
        </mxCell>
        <mxCell id="8ukBdOk7Lgif3fbABD3o-5" value="" style="edgeStyle=orthogonalEdgeStyle;rounded=0;orthogonalLoop=1;jettySize=auto;html=1;" parent="1" source="8ukBdOk7Lgif3fbABD3o-2" target="8ukBdOk7Lgif3fbABD3o-4" edge="1">
          <mxGeometry relative="1" as="geometry" />
        </mxCell>
        <mxCell id="8ukBdOk7Lgif3fbABD3o-2" value="DECLARE data = []" style="rounded=1;whiteSpace=wrap;html=1;" parent="1" vertex="1">
          <mxGeometry x="642.5" y="280" width="145" height="40" as="geometry" />
        </mxCell>
        <mxCell id="8ukBdOk7Lgif3fbABD3o-7" value="" style="edgeStyle=orthogonalEdgeStyle;rounded=0;orthogonalLoop=1;jettySize=auto;html=1;" parent="1" source="8ukBdOk7Lgif3fbABD3o-4" target="8ukBdOk7Lgif3fbABD3o-6" edge="1">
          <mxGeometry relative="1" as="geometry" />
        </mxCell>
        <mxCell id="8ukBdOk7Lgif3fbABD3o-4" value="DECLARE time = []" style="rounded=1;whiteSpace=wrap;html=1;" parent="1" vertex="1">
          <mxGeometry x="642.5" y="370" width="145" height="40" as="geometry" />
        </mxCell>
        <mxCell id="8ukBdOk7Lgif3fbABD3o-9" value="" style="edgeStyle=orthogonalEdgeStyle;rounded=0;orthogonalLoop=1;jettySize=auto;html=1;" parent="1" source="8ukBdOk7Lgif3fbABD3o-6" target="8ukBdOk7Lgif3fbABD3o-8" edge="1">
          <mxGeometry relative="1" as="geometry" />
        </mxCell>
        <mxCell id="8ukBdOk7Lgif3fbABD3o-6" value="index = -2" style="rounded=1;whiteSpace=wrap;html=1;" parent="1" vertex="1">
          <mxGeometry x="642.5" y="460" width="145" height="40" as="geometry" />
        </mxCell>
        <mxCell id="8ukBdOk7Lgif3fbABD3o-11" value="" style="edgeStyle=orthogonalEdgeStyle;rounded=0;orthogonalLoop=1;jettySize=auto;html=1;" parent="1" source="8ukBdOk7Lgif3fbABD3o-8" target="8ukBdOk7Lgif3fbABD3o-10" edge="1">
          <mxGeometry relative="1" as="geometry" />
        </mxCell>
        <mxCell id="8ukBdOk7Lgif3fbABD3o-8" value="sum = 0" style="rounded=1;whiteSpace=wrap;html=1;" parent="1" vertex="1">
          <mxGeometry x="642.5" y="540" width="145" height="40" as="geometry" />
        </mxCell>
        <mxCell id="8ukBdOk7Lgif3fbABD3o-13" value="" style="edgeStyle=orthogonalEdgeStyle;rounded=0;orthogonalLoop=1;jettySize=auto;html=1;" parent="1" source="8ukBdOk7Lgif3fbABD3o-10" target="8ukBdOk7Lgif3fbABD3o-12" edge="1">
          <mxGeometry relative="1" as="geometry" />
        </mxCell>
        <mxCell id="8ukBdOk7Lgif3fbABD3o-10" value="k = 0" style="rounded=1;whiteSpace=wrap;html=1;" parent="1" vertex="1">
          <mxGeometry x="642.5" y="630" width="145" height="40" as="geometry" />
        </mxCell>
        <mxCell id="8ukBdOk7Lgif3fbABD3o-15" value="" style="edgeStyle=orthogonalEdgeStyle;rounded=0;orthogonalLoop=1;jettySize=auto;html=1;" parent="1" source="8ukBdOk7Lgif3fbABD3o-12" target="8ukBdOk7Lgif3fbABD3o-14" edge="1">
          <mxGeometry relative="1" as="geometry" />
        </mxCell>
        <mxCell id="8ukBdOk7Lgif3fbABD3o-12" value="PRINT(&quot;Please input the car ID: &quot;)" style="rounded=1;whiteSpace=wrap;html=1;" parent="1" vertex="1">
          <mxGeometry x="642.5" y="750" width="145" height="40" as="geometry" />
        </mxCell>
        <mxCell id="8ukBdOk7Lgif3fbABD3o-23" style="edgeStyle=orthogonalEdgeStyle;rounded=0;orthogonalLoop=1;jettySize=auto;html=1;" parent="1" source="8ukBdOk7Lgif3fbABD3o-14" target="8ukBdOk7Lgif3fbABD3o-18" edge="1">
          <mxGeometry relative="1" as="geometry" />
        </mxCell>
        <mxCell id="8ukBdOk7Lgif3fbABD3o-14" value="READ car_id" style="shape=parallelogram;perimeter=parallelogramPerimeter;whiteSpace=wrap;html=1;fixedSize=1;" parent="1" vertex="1">
          <mxGeometry x="600" y="840" width="229" height="50" as="geometry" />
        </mxCell>
        <mxCell id="8ukBdOk7Lgif3fbABD3o-16" value="" style="group" parent="1" vertex="1" connectable="0">
          <mxGeometry x="580" y="960" width="284" height="90" as="geometry" />
        </mxCell>
        <mxCell id="8ukBdOk7Lgif3fbABD3o-17" value="" style="shape=hexagon;perimeter=hexagonPerimeter2;whiteSpace=wrap;html=1;fixedSize=1;" parent="8ukBdOk7Lgif3fbABD3o-16" vertex="1">
          <mxGeometry width="284.00000000000006" height="90" as="geometry" />
        </mxCell>
        <mxCell id="8ukBdOk7Lgif3fbABD3o-18" value="i" style="text;html=1;strokeColor=none;fillColor=none;align=center;verticalAlign=middle;whiteSpace=wrap;rounded=0;" parent="8ukBdOk7Lgif3fbABD3o-16" vertex="1">
          <mxGeometry x="108.19047619047619" width="54.095238095238095" height="20" as="geometry" />
        </mxCell>
        <mxCell id="8ukBdOk7Lgif3fbABD3o-19" value="0" style="text;html=1;strokeColor=none;fillColor=none;align=center;verticalAlign=middle;whiteSpace=wrap;rounded=0;" parent="8ukBdOk7Lgif3fbABD3o-16" vertex="1">
          <mxGeometry x="13.523809523809524" y="35" width="54.095238095238095" height="20" as="geometry" />
        </mxCell>
        <mxCell id="8ukBdOk7Lgif3fbABD3o-20" value="1" style="text;html=1;strokeColor=none;fillColor=none;align=center;verticalAlign=middle;whiteSpace=wrap;rounded=0;" parent="8ukBdOk7Lgif3fbABD3o-16" vertex="1">
          <mxGeometry x="108.19047619047619" y="70" width="54.095238095238095" height="20" as="geometry" />
        </mxCell>
        <mxCell id="8ukBdOk7Lgif3fbABD3o-21" value="&amp;lt;range(len(data_carlist)" style="text;html=1;strokeColor=none;fillColor=none;align=center;verticalAlign=middle;whiteSpace=wrap;rounded=0;" parent="8ukBdOk7Lgif3fbABD3o-16" vertex="1">
          <mxGeometry x="186.98757763975158" y="35" width="54.095238095238095" height="20" as="geometry" />
        </mxCell>
        <mxCell id="8ukBdOk7Lgif3fbABD3o-31" value="" style="edgeStyle=orthogonalEdgeStyle;rounded=0;orthogonalLoop=1;jettySize=auto;html=1;" parent="1" source="8ukBdOk7Lgif3fbABD3o-27" target="8ukBdOk7Lgif3fbABD3o-30" edge="1">
          <mxGeometry relative="1" as="geometry" />
        </mxCell>
        <mxCell id="8ukBdOk7Lgif3fbABD3o-36" style="edgeStyle=orthogonalEdgeStyle;rounded=0;orthogonalLoop=1;jettySize=auto;html=1;entryX=0;entryY=0.5;entryDx=0;entryDy=0;" parent="1" source="8ukBdOk7Lgif3fbABD3o-27" target="8ukBdOk7Lgif3fbABD3o-35" edge="1">
          <mxGeometry relative="1" as="geometry" />
        </mxCell>
        <mxCell id="8ukBdOk7Lgif3fbABD3o-27" value="car_id == data_carlist[i][0]" style="rhombus;whiteSpace=wrap;html=1;" parent="1" vertex="1">
          <mxGeometry x="633.5" y="1120" width="173" height="120" as="geometry" />
        </mxCell>
        <mxCell id="8ukBdOk7Lgif3fbABD3o-28" value="" style="edgeStyle=orthogonalEdgeStyle;rounded=0;orthogonalLoop=1;jettySize=auto;html=1;" parent="1" target="8ukBdOk7Lgif3fbABD3o-27" edge="1">
          <mxGeometry relative="1" as="geometry">
            <mxPoint x="720" y="1050" as="sourcePoint" />
          </mxGeometry>
        </mxCell>
        <mxCell id="8ukBdOk7Lgif3fbABD3o-33" value="" style="edgeStyle=orthogonalEdgeStyle;rounded=0;orthogonalLoop=1;jettySize=auto;html=1;" parent="1" source="8ukBdOk7Lgif3fbABD3o-30" target="8ukBdOk7Lgif3fbABD3o-32" edge="1">
          <mxGeometry relative="1" as="geometry" />
        </mxCell>
        <mxCell id="8ukBdOk7Lgif3fbABD3o-30" value="index = i" style="rounded=1;whiteSpace=wrap;html=1;" parent="1" vertex="1">
          <mxGeometry x="647.5" y="1280" width="145" height="40" as="geometry" />
        </mxCell>
        <mxCell id="8ukBdOk7Lgif3fbABD3o-40" value="" style="edgeStyle=orthogonalEdgeStyle;rounded=0;orthogonalLoop=1;jettySize=auto;html=1;" parent="1" source="8ukBdOk7Lgif3fbABD3o-32" target="8ukBdOk7Lgif3fbABD3o-39" edge="1">
          <mxGeometry relative="1" as="geometry" />
        </mxCell>
        <mxCell id="8ukBdOk7Lgif3fbABD3o-32" value="BREAK" style="rounded=1;whiteSpace=wrap;html=1;" parent="1" vertex="1">
          <mxGeometry x="647.5" y="1360" width="145" height="40" as="geometry" />
        </mxCell>
        <mxCell id="8ukBdOk7Lgif3fbABD3o-34" value="True" style="text;html=1;align=center;verticalAlign=middle;resizable=0;points=[];autosize=1;strokeColor=none;" parent="1" vertex="1">
          <mxGeometry x="720" y="1240" width="40" height="20" as="geometry" />
        </mxCell>
        <mxCell id="8ukBdOk7Lgif3fbABD3o-37" style="edgeStyle=orthogonalEdgeStyle;rounded=0;orthogonalLoop=1;jettySize=auto;html=1;" parent="1" source="8ukBdOk7Lgif3fbABD3o-35" edge="1">
          <mxGeometry relative="1" as="geometry">
            <mxPoint x="710" y="930" as="targetPoint" />
            <Array as="points">
              <mxPoint x="930" y="930" />
            </Array>
          </mxGeometry>
        </mxCell>
        <mxCell id="8ukBdOk7Lgif3fbABD3o-35" value="i" style="ellipse;whiteSpace=wrap;html=1;aspect=fixed;" parent="1" vertex="1">
          <mxGeometry x="910" y="1160" width="40" height="40" as="geometry" />
        </mxCell>
        <mxCell id="8ukBdOk7Lgif3fbABD3o-38" value="False" style="text;html=1;align=center;verticalAlign=middle;resizable=0;points=[];autosize=1;strokeColor=none;" parent="1" vertex="1">
          <mxGeometry x="807" y="1160" width="40" height="20" as="geometry" />
        </mxCell>
        <mxCell id="8ukBdOk7Lgif3fbABD3o-42" value="" style="edgeStyle=orthogonalEdgeStyle;rounded=0;orthogonalLoop=1;jettySize=auto;html=1;" parent="1" source="8ukBdOk7Lgif3fbABD3o-39" target="8ukBdOk7Lgif3fbABD3o-41" edge="1">
          <mxGeometry relative="1" as="geometry" />
        </mxCell>
        <mxCell id="8ukBdOk7Lgif3fbABD3o-46" value="" style="edgeStyle=orthogonalEdgeStyle;rounded=0;orthogonalLoop=1;jettySize=auto;html=1;" parent="1" source="8ukBdOk7Lgif3fbABD3o-39" target="8ukBdOk7Lgif3fbABD3o-45" edge="1">
          <mxGeometry relative="1" as="geometry" />
        </mxCell>
        <mxCell id="8ukBdOk7Lgif3fbABD3o-39" value="index == i" style="rhombus;whiteSpace=wrap;html=1;" parent="1" vertex="1">
          <mxGeometry x="665" y="1440" width="110" height="100" as="geometry" />
        </mxCell>
        <mxCell id="8ukBdOk7Lgif3fbABD3o-82" value="" style="edgeStyle=orthogonalEdgeStyle;rounded=0;orthogonalLoop=1;jettySize=auto;html=1;" parent="1" source="8ukBdOk7Lgif3fbABD3o-41" target="8ukBdOk7Lgif3fbABD3o-81" edge="1">
          <mxGeometry relative="1" as="geometry" />
        </mxCell>
        <mxCell id="8ukBdOk7Lgif3fbABD3o-41" value="BREAK" style="rounded=1;whiteSpace=wrap;html=1;" parent="1" vertex="1">
          <mxGeometry x="837.5" y="1470" width="145" height="40" as="geometry" />
        </mxCell>
        <mxCell id="8ukBdOk7Lgif3fbABD3o-43" value="True" style="text;html=1;align=center;verticalAlign=middle;resizable=0;points=[];autosize=1;strokeColor=none;" parent="1" vertex="1">
          <mxGeometry x="775" y="1470" width="40" height="20" as="geometry" />
        </mxCell>
        <mxCell id="8ukBdOk7Lgif3fbABD3o-48" value="" style="edgeStyle=orthogonalEdgeStyle;rounded=0;orthogonalLoop=1;jettySize=auto;html=1;" parent="1" source="8ukBdOk7Lgif3fbABD3o-45" target="8ukBdOk7Lgif3fbABD3o-47" edge="1">
          <mxGeometry relative="1" as="geometry" />
        </mxCell>
        <mxCell id="8ukBdOk7Lgif3fbABD3o-45" value="PRINT(&quot;Car ID doesn&#39;t exists!&quot;)" style="rounded=1;whiteSpace=wrap;html=1;" parent="1" vertex="1">
          <mxGeometry x="605" y="1570" width="230" height="40" as="geometry" />
        </mxCell>
        <mxCell id="8ukBdOk7Lgif3fbABD3o-50" value="" style="edgeStyle=orthogonalEdgeStyle;rounded=0;orthogonalLoop=1;jettySize=auto;html=1;" parent="1" source="8ukBdOk7Lgif3fbABD3o-47" target="8ukBdOk7Lgif3fbABD3o-49" edge="1">
          <mxGeometry relative="1" as="geometry" />
        </mxCell>
        <mxCell id="8ukBdOk7Lgif3fbABD3o-47" value="k = k + 1" style="rounded=1;whiteSpace=wrap;html=1;" parent="1" vertex="1">
          <mxGeometry x="605" y="1650" width="230" height="40" as="geometry" />
        </mxCell>
        <mxCell id="8ukBdOk7Lgif3fbABD3o-59" style="edgeStyle=orthogonalEdgeStyle;rounded=0;orthogonalLoop=1;jettySize=auto;html=1;" parent="1" source="8ukBdOk7Lgif3fbABD3o-49" edge="1">
          <mxGeometry relative="1" as="geometry">
            <mxPoint x="720" y="698" as="targetPoint" />
            <Array as="points">
              <mxPoint x="520" y="1810" />
              <mxPoint x="520" y="698" />
            </Array>
          </mxGeometry>
        </mxCell>
        <mxCell id="8ukBdOk7Lgif3fbABD3o-60" style="edgeStyle=orthogonalEdgeStyle;rounded=0;orthogonalLoop=1;jettySize=auto;html=1;entryX=0.5;entryY=0;entryDx=0;entryDy=0;" parent="1" source="8ukBdOk7Lgif3fbABD3o-49" target="8ukBdOk7Lgif3fbABD3o-51" edge="1">
          <mxGeometry relative="1" as="geometry">
            <Array as="points">
              <mxPoint x="1000" y="1810" />
              <mxPoint x="1000" y="280" />
              <mxPoint x="1250" y="280" />
            </Array>
          </mxGeometry>
        </mxCell>
        <mxCell id="8ukBdOk7Lgif3fbABD3o-49" value="k &amp;gt; 4" style="rhombus;whiteSpace=wrap;html=1;" parent="1" vertex="1">
          <mxGeometry x="665" y="1760" width="110" height="100" as="geometry" />
        </mxCell>
        <mxCell id="8ukBdOk7Lgif3fbABD3o-55" value="" style="edgeStyle=orthogonalEdgeStyle;rounded=0;orthogonalLoop=1;jettySize=auto;html=1;" parent="1" source="8ukBdOk7Lgif3fbABD3o-51" target="8ukBdOk7Lgif3fbABD3o-53" edge="1">
          <mxGeometry relative="1" as="geometry" />
        </mxCell>
        <mxCell id="8ukBdOk7Lgif3fbABD3o-51" value="DECLARE menu = [&quot;Continue&quot;,&quot;Return&quot;]" style="rounded=1;whiteSpace=wrap;html=1;" parent="1" vertex="1">
          <mxGeometry x="1177.5" y="300" width="145" height="40" as="geometry" />
        </mxCell>
        <mxCell id="8ukBdOk7Lgif3fbABD3o-56" value="" style="edgeStyle=orthogonalEdgeStyle;rounded=0;orthogonalLoop=1;jettySize=auto;html=1;" parent="1" source="8ukBdOk7Lgif3fbABD3o-53" target="8ukBdOk7Lgif3fbABD3o-54" edge="1">
          <mxGeometry relative="1" as="geometry" />
        </mxCell>
        <mxCell id="8ukBdOk7Lgif3fbABD3o-53" value="default.general_menu(menu)" style="shape=process;whiteSpace=wrap;html=1;backgroundOutline=1;" parent="1" vertex="1">
          <mxGeometry x="1130" y="370" width="240" height="50" as="geometry" />
        </mxCell>
        <mxCell id="8ukBdOk7Lgif3fbABD3o-58" value="" style="edgeStyle=orthogonalEdgeStyle;rounded=0;orthogonalLoop=1;jettySize=auto;html=1;" parent="1" source="8ukBdOk7Lgif3fbABD3o-54" target="8ukBdOk7Lgif3fbABD3o-57" edge="1">
          <mxGeometry relative="1" as="geometry" />
        </mxCell>
        <mxCell id="8ukBdOk7Lgif3fbABD3o-54" value="PRINT(&quot;Please Select: &quot;)" style="rounded=1;whiteSpace=wrap;html=1;" parent="1" vertex="1">
          <mxGeometry x="1135" y="460" width="230" height="40" as="geometry" />
        </mxCell>
        <mxCell id="8ukBdOk7Lgif3fbABD3o-64" value="" style="edgeStyle=orthogonalEdgeStyle;rounded=0;orthogonalLoop=1;jettySize=auto;html=1;" parent="1" source="8ukBdOk7Lgif3fbABD3o-57" target="8ukBdOk7Lgif3fbABD3o-63" edge="1">
          <mxGeometry relative="1" as="geometry" />
        </mxCell>
        <mxCell id="8ukBdOk7Lgif3fbABD3o-57" value="READ choice" style="shape=parallelogram;perimeter=parallelogramPerimeter;whiteSpace=wrap;html=1;fixedSize=1;" parent="1" vertex="1">
          <mxGeometry x="1135" y="530" width="229" height="50" as="geometry" />
        </mxCell>
        <mxCell id="8ukBdOk7Lgif3fbABD3o-61" value="False" style="text;html=1;align=center;verticalAlign=middle;resizable=0;points=[];autosize=1;strokeColor=none;" parent="1" vertex="1">
          <mxGeometry x="625" y="1790" width="40" height="20" as="geometry" />
        </mxCell>
        <mxCell id="8ukBdOk7Lgif3fbABD3o-62" value="True" style="text;html=1;align=center;verticalAlign=middle;resizable=0;points=[];autosize=1;strokeColor=none;" parent="1" vertex="1">
          <mxGeometry x="775" y="1790" width="40" height="20" as="geometry" />
        </mxCell>
        <mxCell id="8ukBdOk7Lgif3fbABD3o-70" value="" style="edgeStyle=orthogonalEdgeStyle;rounded=0;orthogonalLoop=1;jettySize=auto;html=1;" parent="1" source="8ukBdOk7Lgif3fbABD3o-63" target="8ukBdOk7Lgif3fbABD3o-65" edge="1">
          <mxGeometry relative="1" as="geometry" />
        </mxCell>
        <mxCell id="8ukBdOk7Lgif3fbABD3o-71" style="edgeStyle=orthogonalEdgeStyle;rounded=0;orthogonalLoop=1;jettySize=auto;html=1;" parent="1" source="8ukBdOk7Lgif3fbABD3o-63" edge="1">
          <mxGeometry relative="1" as="geometry">
            <mxPoint x="1249.5" y="349" as="targetPoint" />
            <Array as="points">
              <mxPoint x="1080" y="670" />
              <mxPoint x="1080" y="349" />
            </Array>
          </mxGeometry>
        </mxCell>
        <mxCell id="8ukBdOk7Lgif3fbABD3o-63" value="choice == &#39;1&#39; OR choice == &#39;2&#39;" style="rhombus;whiteSpace=wrap;html=1;" parent="1" vertex="1">
          <mxGeometry x="1147" y="620" width="205" height="100" as="geometry" />
        </mxCell>
        <mxCell id="8ukBdOk7Lgif3fbABD3o-67" style="edgeStyle=orthogonalEdgeStyle;rounded=0;orthogonalLoop=1;jettySize=auto;html=1;entryX=0.5;entryY=0;entryDx=0;entryDy=0;" parent="1" source="8ukBdOk7Lgif3fbABD3o-65" target="8ukBdOk7Lgif3fbABD3o-66" edge="1">
          <mxGeometry relative="1" as="geometry" />
        </mxCell>
        <mxCell id="8ukBdOk7Lgif3fbABD3o-65" value="BREAK" style="rounded=1;whiteSpace=wrap;html=1;" parent="1" vertex="1">
          <mxGeometry x="1177" y="760" width="145" height="40" as="geometry" />
        </mxCell>
        <mxCell id="8ukBdOk7Lgif3fbABD3o-69" style="edgeStyle=orthogonalEdgeStyle;rounded=0;orthogonalLoop=1;jettySize=auto;html=1;entryX=0;entryY=0.5;entryDx=0;entryDy=0;" parent="1" source="8ukBdOk7Lgif3fbABD3o-66" target="8ukBdOk7Lgif3fbABD3o-68" edge="1">
          <mxGeometry relative="1" as="geometry" />
        </mxCell>
        <mxCell id="8ukBdOk7Lgif3fbABD3o-73" value="" style="edgeStyle=orthogonalEdgeStyle;rounded=0;orthogonalLoop=1;jettySize=auto;html=1;" parent="1" source="8ukBdOk7Lgif3fbABD3o-66" target="8ukBdOk7Lgif3fbABD3o-72" edge="1">
          <mxGeometry relative="1" as="geometry" />
        </mxCell>
        <mxCell id="8ukBdOk7Lgif3fbABD3o-66" value="choice == &#39;1&#39;" style="rhombus;whiteSpace=wrap;html=1;" parent="1" vertex="1">
          <mxGeometry x="1195" y="850" width="110" height="100" as="geometry" />
        </mxCell>
        <mxCell id="8ukBdOk7Lgif3fbABD3o-75" value="" style="edgeStyle=orthogonalEdgeStyle;rounded=0;orthogonalLoop=1;jettySize=auto;html=1;" parent="1" source="8ukBdOk7Lgif3fbABD3o-68" target="8ukBdOk7Lgif3fbABD3o-74" edge="1">
          <mxGeometry relative="1" as="geometry" />
        </mxCell>
        <mxCell id="8ukBdOk7Lgif3fbABD3o-68" value="choice == &#39;1&#39;" style="rhombus;whiteSpace=wrap;html=1;" parent="1" vertex="1">
          <mxGeometry x="1425" y="850" width="110" height="100" as="geometry" />
        </mxCell>
        <mxCell id="8ukBdOk7Lgif3fbABD3o-77" value="" style="edgeStyle=orthogonalEdgeStyle;rounded=0;orthogonalLoop=1;jettySize=auto;html=1;" parent="1" source="8ukBdOk7Lgif3fbABD3o-72" target="8ukBdOk7Lgif3fbABD3o-76" edge="1">
          <mxGeometry relative="1" as="geometry" />
        </mxCell>
        <mxCell id="8ukBdOk7Lgif3fbABD3o-72" value="bookcar_menu(user_data, data_clients, data_carlist, data_transactions)" style="shape=process;whiteSpace=wrap;html=1;backgroundOutline=1;" parent="1" vertex="1">
          <mxGeometry x="1143" y="1010" width="213" height="70" as="geometry" />
        </mxCell>
        <mxCell id="8ukBdOk7Lgif3fbABD3o-74" value="RETURN" style="ellipse;whiteSpace=wrap;html=1;" parent="1" vertex="1">
          <mxGeometry x="1435" y="1005" width="90" height="80" as="geometry" />
        </mxCell>
        <mxCell id="8ukBdOk7Lgif3fbABD3o-76" value="RETURN" style="ellipse;whiteSpace=wrap;html=1;" parent="1" vertex="1">
          <mxGeometry x="1205" y="1130" width="90" height="80" as="geometry" />
        </mxCell>
        <mxCell id="8ukBdOk7Lgif3fbABD3o-78" value="False" style="text;html=1;align=center;verticalAlign=middle;resizable=0;points=[];autosize=1;strokeColor=none;" parent="1" vertex="1">
          <mxGeometry x="1107" y="650" width="40" height="20" as="geometry" />
        </mxCell>
        <mxCell id="8ukBdOk7Lgif3fbABD3o-79" value="True" style="text;html=1;align=center;verticalAlign=middle;resizable=0;points=[];autosize=1;strokeColor=none;" parent="1" vertex="1">
          <mxGeometry x="1250" y="720" width="40" height="20" as="geometry" />
        </mxCell>
        <mxCell id="8ukBdOk7Lgif3fbABD3o-80" value="False" style="text;html=1;align=center;verticalAlign=middle;resizable=0;points=[];autosize=1;strokeColor=none;" parent="1" vertex="1">
          <mxGeometry x="720" y="1540" width="40" height="20" as="geometry" />
        </mxCell>
        <mxCell id="8ukBdOk7Lgif3fbABD3o-81" value="1" style="ellipse;whiteSpace=wrap;html=1;aspect=fixed;" parent="1" vertex="1">
          <mxGeometry x="890" y="1570" width="40" height="40" as="geometry" />
        </mxCell>
        <mxCell id="W-g8BdjZUGvjcecXiJGc-1" style="edgeStyle=orthogonalEdgeStyle;rounded=0;orthogonalLoop=1;jettySize=auto;html=1;" parent="1" source="8ukBdOk7Lgif3fbABD3o-17" edge="1">
          <mxGeometry relative="1" as="geometry">
            <mxPoint x="720" y="1420" as="targetPoint" />
            <Array as="points">
              <mxPoint x="550" y="1005" />
              <mxPoint x="550" y="1420" />
            </Array>
          </mxGeometry>
        </mxCell>
        <mxCell id="UpvCvGjiAjC1ggdcsToq-1" value="True" style="text;html=1;align=center;verticalAlign=middle;resizable=0;points=[];autosize=1;strokeColor=none;" parent="1" vertex="1">
          <mxGeometry x="1255" y="950" width="40" height="20" as="geometry" />
        </mxCell>
        <mxCell id="UpvCvGjiAjC1ggdcsToq-2" value="True" style="text;html=1;align=center;verticalAlign=middle;resizable=0;points=[];autosize=1;strokeColor=none;" parent="1" vertex="1">
          <mxGeometry x="1480" y="950" width="40" height="20" as="geometry" />
        </mxCell>
        <mxCell id="UpvCvGjiAjC1ggdcsToq-3" value="False" style="text;html=1;align=center;verticalAlign=middle;resizable=0;points=[];autosize=1;strokeColor=none;" parent="1" vertex="1">
          <mxGeometry x="1305" y="880" width="40" height="20" as="geometry" />
        </mxCell>
      </root>
    </mxGraphModel>
  </diagram>
  <diagram id="8cGT1j6S7oRrIn47xZTd" name="Page-2">
    <mxGraphModel dx="1521" dy="1064" grid="1" gridSize="10" guides="1" tooltips="1" connect="1" arrows="1" fold="1" page="1" pageScale="1" pageWidth="3300" pageHeight="4681" math="0" shadow="0">
      <root>
        <mxCell id="GZV6AmubJmzLLc3v1_bx-0" />
        <mxCell id="GZV6AmubJmzLLc3v1_bx-1" parent="GZV6AmubJmzLLc3v1_bx-0" />
        <mxCell id="GZV6AmubJmzLLc3v1_bx-7" value="" style="edgeStyle=orthogonalEdgeStyle;rounded=0;orthogonalLoop=1;jettySize=auto;html=1;" edge="1" parent="GZV6AmubJmzLLc3v1_bx-1" source="GZV6AmubJmzLLc3v1_bx-3" target="GZV6AmubJmzLLc3v1_bx-6">
          <mxGeometry relative="1" as="geometry" />
        </mxCell>
        <mxCell id="GZV6AmubJmzLLc3v1_bx-3" value="1" style="ellipse;whiteSpace=wrap;html=1;aspect=fixed;" vertex="1" parent="GZV6AmubJmzLLc3v1_bx-1">
          <mxGeometry x="415" y="160" width="40" height="40" as="geometry" />
        </mxCell>
        <mxCell id="GZV6AmubJmzLLc3v1_bx-9" value="" style="edgeStyle=orthogonalEdgeStyle;rounded=0;orthogonalLoop=1;jettySize=auto;html=1;" edge="1" parent="GZV6AmubJmzLLc3v1_bx-1" source="GZV6AmubJmzLLc3v1_bx-6" target="GZV6AmubJmzLLc3v1_bx-8">
          <mxGeometry relative="1" as="geometry" />
        </mxCell>
        <mxCell id="GZV6AmubJmzLLc3v1_bx-6" value="APPEND user_data[0] TO data" style="rounded=1;whiteSpace=wrap;html=1;" vertex="1" parent="GZV6AmubJmzLLc3v1_bx-1">
          <mxGeometry x="320" y="240" width="230" height="40" as="geometry" />
        </mxCell>
        <mxCell id="GZV6AmubJmzLLc3v1_bx-18" style="edgeStyle=orthogonalEdgeStyle;rounded=0;orthogonalLoop=1;jettySize=auto;html=1;entryX=0.5;entryY=0;entryDx=0;entryDy=0;" edge="1" parent="GZV6AmubJmzLLc3v1_bx-1" source="GZV6AmubJmzLLc3v1_bx-8" target="GZV6AmubJmzLLc3v1_bx-14">
          <mxGeometry relative="1" as="geometry" />
        </mxCell>
        <mxCell id="GZV6AmubJmzLLc3v1_bx-8" value="APPEND user_data[2] TO data" style="rounded=1;whiteSpace=wrap;html=1;" vertex="1" parent="GZV6AmubJmzLLc3v1_bx-1">
          <mxGeometry x="320" y="360" width="230" height="40" as="geometry" />
        </mxCell>
        <mxCell id="GZV6AmubJmzLLc3v1_bx-12" value="" style="group" vertex="1" connectable="0" parent="GZV6AmubJmzLLc3v1_bx-1">
          <mxGeometry x="325" y="490" width="230" height="90" as="geometry" />
        </mxCell>
        <mxCell id="GZV6AmubJmzLLc3v1_bx-13" value="" style="shape=hexagon;perimeter=hexagonPerimeter2;whiteSpace=wrap;html=1;fixedSize=1;" vertex="1" parent="GZV6AmubJmzLLc3v1_bx-12">
          <mxGeometry width="230.00000000000003" height="90" as="geometry" />
        </mxCell>
        <mxCell id="GZV6AmubJmzLLc3v1_bx-14" value="i" style="text;html=1;strokeColor=none;fillColor=none;align=center;verticalAlign=middle;whiteSpace=wrap;rounded=0;" vertex="1" parent="GZV6AmubJmzLLc3v1_bx-12">
          <mxGeometry x="87.61904761904762" width="43.80952380952381" height="20" as="geometry" />
        </mxCell>
        <mxCell id="GZV6AmubJmzLLc3v1_bx-15" value="0" style="text;html=1;strokeColor=none;fillColor=none;align=center;verticalAlign=middle;whiteSpace=wrap;rounded=0;" vertex="1" parent="GZV6AmubJmzLLc3v1_bx-12">
          <mxGeometry x="10.952380952380953" y="35" width="43.80952380952381" height="20" as="geometry" />
        </mxCell>
        <mxCell id="GZV6AmubJmzLLc3v1_bx-16" value="1" style="text;html=1;strokeColor=none;fillColor=none;align=center;verticalAlign=middle;whiteSpace=wrap;rounded=0;" vertex="1" parent="GZV6AmubJmzLLc3v1_bx-12">
          <mxGeometry x="87.61904761904762" y="70" width="43.80952380952381" height="20" as="geometry" />
        </mxCell>
        <mxCell id="GZV6AmubJmzLLc3v1_bx-17" value="&amp;lt;range(4)" style="text;html=1;strokeColor=none;fillColor=none;align=center;verticalAlign=middle;whiteSpace=wrap;rounded=0;" vertex="1" parent="GZV6AmubJmzLLc3v1_bx-12">
          <mxGeometry x="164.2857142857143" y="35" width="43.80952380952381" height="20" as="geometry" />
        </mxCell>
        <mxCell id="GZV6AmubJmzLLc3v1_bx-23" value="" style="edgeStyle=orthogonalEdgeStyle;rounded=0;orthogonalLoop=1;jettySize=auto;html=1;" edge="1" parent="GZV6AmubJmzLLc3v1_bx-1" source="GZV6AmubJmzLLc3v1_bx-19" target="GZV6AmubJmzLLc3v1_bx-22">
          <mxGeometry relative="1" as="geometry" />
        </mxCell>
        <mxCell id="GZV6AmubJmzLLc3v1_bx-19" value="APPEND data_carlist[index][i] TO data" style="rounded=1;whiteSpace=wrap;html=1;" vertex="1" parent="GZV6AmubJmzLLc3v1_bx-1">
          <mxGeometry x="325" y="640" width="230" height="40" as="geometry" />
        </mxCell>
        <mxCell id="GZV6AmubJmzLLc3v1_bx-21" value="" style="edgeStyle=orthogonalEdgeStyle;rounded=0;orthogonalLoop=1;jettySize=auto;html=1;" edge="1" parent="GZV6AmubJmzLLc3v1_bx-1" source="GZV6AmubJmzLLc3v1_bx-13" target="GZV6AmubJmzLLc3v1_bx-19">
          <mxGeometry relative="1" as="geometry" />
        </mxCell>
        <mxCell id="GZV6AmubJmzLLc3v1_bx-24" style="edgeStyle=orthogonalEdgeStyle;rounded=0;orthogonalLoop=1;jettySize=auto;html=1;" edge="1" parent="GZV6AmubJmzLLc3v1_bx-1">
          <mxGeometry relative="1" as="geometry">
            <mxPoint x="436" y="430" as="targetPoint" />
            <mxPoint x="226" y="640" as="sourcePoint" />
            <Array as="points">
              <mxPoint x="230" y="640" />
              <mxPoint x="230" y="430" />
            </Array>
          </mxGeometry>
        </mxCell>
        <mxCell id="GZV6AmubJmzLLc3v1_bx-22" value="i" style="ellipse;whiteSpace=wrap;html=1;aspect=fixed;" vertex="1" parent="GZV6AmubJmzLLc3v1_bx-1">
          <mxGeometry x="210" y="640" width="40" height="40" as="geometry" />
        </mxCell>
        <mxCell id="Sj4XasgGUbYDS0IYGO-o-2" value="" style="edgeStyle=orthogonalEdgeStyle;rounded=0;orthogonalLoop=1;jettySize=auto;html=1;" edge="1" parent="GZV6AmubJmzLLc3v1_bx-1" source="_rXl8Yy0mweQRqLHOtvy-0" target="Sj4XasgGUbYDS0IYGO-o-0">
          <mxGeometry relative="1" as="geometry" />
        </mxCell>
        <mxCell id="_rXl8Yy0mweQRqLHOtvy-0" value="APPEND data_carlist[index][9] TO data" style="rounded=1;whiteSpace=wrap;html=1;" vertex="1" parent="GZV6AmubJmzLLc3v1_bx-1">
          <mxGeometry x="325" y="730" width="230" height="40" as="geometry" />
        </mxCell>
        <mxCell id="_rXl8Yy0mweQRqLHOtvy-1" style="edgeStyle=orthogonalEdgeStyle;rounded=0;orthogonalLoop=1;jettySize=auto;html=1;entryX=1;entryY=0.5;entryDx=0;entryDy=0;" edge="1" parent="GZV6AmubJmzLLc3v1_bx-1" source="GZV6AmubJmzLLc3v1_bx-13" target="_rXl8Yy0mweQRqLHOtvy-0">
          <mxGeometry relative="1" as="geometry">
            <Array as="points">
              <mxPoint x="600" y="535" />
              <mxPoint x="600" y="750" />
            </Array>
          </mxGeometry>
        </mxCell>
        <mxCell id="Sj4XasgGUbYDS0IYGO-o-3" value="" style="edgeStyle=orthogonalEdgeStyle;rounded=0;orthogonalLoop=1;jettySize=auto;html=1;" edge="1" parent="GZV6AmubJmzLLc3v1_bx-1" source="Sj4XasgGUbYDS0IYGO-o-0" target="Sj4XasgGUbYDS0IYGO-o-1">
          <mxGeometry relative="1" as="geometry" />
        </mxCell>
        <mxCell id="Sj4XasgGUbYDS0IYGO-o-0" value="from_date = select_date(&quot;From: &quot;, user_data)" style="shape=process;whiteSpace=wrap;html=1;backgroundOutline=1;" vertex="1" parent="GZV6AmubJmzLLc3v1_bx-1">
          <mxGeometry x="320" y="840" width="240" height="50" as="geometry" />
        </mxCell>
        <mxCell id="Sj4XasgGUbYDS0IYGO-o-5" style="edgeStyle=orthogonalEdgeStyle;rounded=0;orthogonalLoop=1;jettySize=auto;html=1;entryX=0.5;entryY=0;entryDx=0;entryDy=0;" edge="1" parent="GZV6AmubJmzLLc3v1_bx-1" source="Sj4XasgGUbYDS0IYGO-o-1" target="Sj4XasgGUbYDS0IYGO-o-4">
          <mxGeometry relative="1" as="geometry" />
        </mxCell>
        <mxCell id="Sj4XasgGUbYDS0IYGO-o-1" value="PRINT(&quot;&quot;)" style="rounded=1;whiteSpace=wrap;html=1;" vertex="1" parent="GZV6AmubJmzLLc3v1_bx-1">
          <mxGeometry x="325" y="950" width="230" height="40" as="geometry" />
        </mxCell>
        <mxCell id="FgeCXVC08KKCuWiRvYAd-1" value="" style="edgeStyle=orthogonalEdgeStyle;rounded=0;orthogonalLoop=1;jettySize=auto;html=1;" edge="1" parent="GZV6AmubJmzLLc3v1_bx-1" source="Sj4XasgGUbYDS0IYGO-o-4" target="FgeCXVC08KKCuWiRvYAd-0">
          <mxGeometry relative="1" as="geometry" />
        </mxCell>
        <mxCell id="FgeCXVC08KKCuWiRvYAd-6" value="" style="edgeStyle=orthogonalEdgeStyle;rounded=0;orthogonalLoop=1;jettySize=auto;html=1;" edge="1" parent="GZV6AmubJmzLLc3v1_bx-1" source="Sj4XasgGUbYDS0IYGO-o-4" target="FgeCXVC08KKCuWiRvYAd-5">
          <mxGeometry relative="1" as="geometry" />
        </mxCell>
        <mxCell id="Sj4XasgGUbYDS0IYGO-o-4" value="from_date == 1" style="rhombus;whiteSpace=wrap;html=1;" vertex="1" parent="GZV6AmubJmzLLc3v1_bx-1">
          <mxGeometry x="175" y="1040" width="110" height="100" as="geometry" />
        </mxCell>
        <mxCell id="FgeCXVC08KKCuWiRvYAd-3" value="" style="edgeStyle=orthogonalEdgeStyle;rounded=0;orthogonalLoop=1;jettySize=auto;html=1;" edge="1" parent="GZV6AmubJmzLLc3v1_bx-1" source="FgeCXVC08KKCuWiRvYAd-0" target="FgeCXVC08KKCuWiRvYAd-2">
          <mxGeometry relative="1" as="geometry" />
        </mxCell>
        <mxCell id="FgeCXVC08KKCuWiRvYAd-9" value="" style="edgeStyle=orthogonalEdgeStyle;rounded=0;orthogonalLoop=1;jettySize=auto;html=1;" edge="1" parent="GZV6AmubJmzLLc3v1_bx-1" source="FgeCXVC08KKCuWiRvYAd-0" target="FgeCXVC08KKCuWiRvYAd-8">
          <mxGeometry relative="1" as="geometry" />
        </mxCell>
        <mxCell id="FgeCXVC08KKCuWiRvYAd-0" value="from_date == 2" style="rhombus;whiteSpace=wrap;html=1;" vertex="1" parent="GZV6AmubJmzLLc3v1_bx-1">
          <mxGeometry x="380" y="1040" width="110" height="100" as="geometry" />
        </mxCell>
        <mxCell id="FgeCXVC08KKCuWiRvYAd-25" style="edgeStyle=orthogonalEdgeStyle;rounded=0;orthogonalLoop=1;jettySize=auto;html=1;entryX=0.5;entryY=0;entryDx=0;entryDy=0;" edge="1" parent="GZV6AmubJmzLLc3v1_bx-1" source="FgeCXVC08KKCuWiRvYAd-2" target="FgeCXVC08KKCuWiRvYAd-11">
          <mxGeometry relative="1" as="geometry">
            <Array as="points">
              <mxPoint x="623" y="1270" />
              <mxPoint x="440" y="1270" />
            </Array>
          </mxGeometry>
        </mxCell>
        <mxCell id="FgeCXVC08KKCuWiRvYAd-2" value="BREAK" style="rounded=1;whiteSpace=wrap;html=1;" vertex="1" parent="GZV6AmubJmzLLc3v1_bx-1">
          <mxGeometry x="550" y="1070" width="145" height="40" as="geometry" />
        </mxCell>
        <mxCell id="FgeCXVC08KKCuWiRvYAd-4" value="True" style="text;html=1;align=center;verticalAlign=middle;resizable=0;points=[];autosize=1;strokeColor=none;" vertex="1" parent="GZV6AmubJmzLLc3v1_bx-1">
          <mxGeometry x="230" y="1140" width="40" height="20" as="geometry" />
        </mxCell>
        <mxCell id="FgeCXVC08KKCuWiRvYAd-7" style="edgeStyle=orthogonalEdgeStyle;rounded=0;orthogonalLoop=1;jettySize=auto;html=1;entryX=0;entryY=0.5;entryDx=0;entryDy=0;" edge="1" parent="GZV6AmubJmzLLc3v1_bx-1" source="FgeCXVC08KKCuWiRvYAd-5" target="Sj4XasgGUbYDS0IYGO-o-0">
          <mxGeometry relative="1" as="geometry">
            <Array as="points">
              <mxPoint x="130" y="1200" />
              <mxPoint x="130" y="865" />
            </Array>
          </mxGeometry>
        </mxCell>
        <mxCell id="FgeCXVC08KKCuWiRvYAd-5" value="PASS" style="rounded=1;whiteSpace=wrap;html=1;" vertex="1" parent="GZV6AmubJmzLLc3v1_bx-1">
          <mxGeometry x="158" y="1180" width="145" height="40" as="geometry" />
        </mxCell>
        <mxCell id="FgeCXVC08KKCuWiRvYAd-8" value="RETURN" style="ellipse;whiteSpace=wrap;html=1;" vertex="1" parent="GZV6AmubJmzLLc3v1_bx-1">
          <mxGeometry x="390" y="1170" width="90" height="80" as="geometry" />
        </mxCell>
        <mxCell id="FgeCXVC08KKCuWiRvYAd-10" value="" style="edgeStyle=orthogonalEdgeStyle;rounded=0;orthogonalLoop=1;jettySize=auto;html=1;" edge="1" parent="GZV6AmubJmzLLc3v1_bx-1" source="FgeCXVC08KKCuWiRvYAd-11" target="FgeCXVC08KKCuWiRvYAd-13">
          <mxGeometry relative="1" as="geometry" />
        </mxCell>
        <mxCell id="FgeCXVC08KKCuWiRvYAd-11" value="from_time = select_time(&quot;From: &quot;)" style="shape=process;whiteSpace=wrap;html=1;backgroundOutline=1;" vertex="1" parent="GZV6AmubJmzLLc3v1_bx-1">
          <mxGeometry x="320" y="1300" width="240" height="50" as="geometry" />
        </mxCell>
        <mxCell id="FgeCXVC08KKCuWiRvYAd-12" style="edgeStyle=orthogonalEdgeStyle;rounded=0;orthogonalLoop=1;jettySize=auto;html=1;entryX=0.5;entryY=0;entryDx=0;entryDy=0;" edge="1" parent="GZV6AmubJmzLLc3v1_bx-1" source="FgeCXVC08KKCuWiRvYAd-13" target="FgeCXVC08KKCuWiRvYAd-16">
          <mxGeometry relative="1" as="geometry" />
        </mxCell>
        <mxCell id="FgeCXVC08KKCuWiRvYAd-13" value="PRINT(&quot;&quot;)" style="rounded=1;whiteSpace=wrap;html=1;" vertex="1" parent="GZV6AmubJmzLLc3v1_bx-1">
          <mxGeometry x="325" y="1410" width="230" height="40" as="geometry" />
        </mxCell>
        <mxCell id="FgeCXVC08KKCuWiRvYAd-14" value="" style="edgeStyle=orthogonalEdgeStyle;rounded=0;orthogonalLoop=1;jettySize=auto;html=1;" edge="1" parent="GZV6AmubJmzLLc3v1_bx-1" source="FgeCXVC08KKCuWiRvYAd-16" target="FgeCXVC08KKCuWiRvYAd-19">
          <mxGeometry relative="1" as="geometry" />
        </mxCell>
        <mxCell id="FgeCXVC08KKCuWiRvYAd-15" value="" style="edgeStyle=orthogonalEdgeStyle;rounded=0;orthogonalLoop=1;jettySize=auto;html=1;" edge="1" parent="GZV6AmubJmzLLc3v1_bx-1" source="FgeCXVC08KKCuWiRvYAd-16" target="FgeCXVC08KKCuWiRvYAd-23">
          <mxGeometry relative="1" as="geometry" />
        </mxCell>
        <mxCell id="FgeCXVC08KKCuWiRvYAd-16" value="from_time == 1" style="rhombus;whiteSpace=wrap;html=1;" vertex="1" parent="GZV6AmubJmzLLc3v1_bx-1">
          <mxGeometry x="175" y="1500" width="110" height="100" as="geometry" />
        </mxCell>
        <mxCell id="FgeCXVC08KKCuWiRvYAd-17" value="" style="edgeStyle=orthogonalEdgeStyle;rounded=0;orthogonalLoop=1;jettySize=auto;html=1;" edge="1" parent="GZV6AmubJmzLLc3v1_bx-1" source="FgeCXVC08KKCuWiRvYAd-19" target="FgeCXVC08KKCuWiRvYAd-20">
          <mxGeometry relative="1" as="geometry" />
        </mxCell>
        <mxCell id="FgeCXVC08KKCuWiRvYAd-18" value="" style="edgeStyle=orthogonalEdgeStyle;rounded=0;orthogonalLoop=1;jettySize=auto;html=1;" edge="1" parent="GZV6AmubJmzLLc3v1_bx-1" source="FgeCXVC08KKCuWiRvYAd-19" target="FgeCXVC08KKCuWiRvYAd-24">
          <mxGeometry relative="1" as="geometry" />
        </mxCell>
        <mxCell id="FgeCXVC08KKCuWiRvYAd-19" value="from_time == 2" style="rhombus;whiteSpace=wrap;html=1;" vertex="1" parent="GZV6AmubJmzLLc3v1_bx-1">
          <mxGeometry x="380" y="1500" width="110" height="100" as="geometry" />
        </mxCell>
        <mxCell id="FgeCXVC08KKCuWiRvYAd-41" style="edgeStyle=orthogonalEdgeStyle;rounded=0;orthogonalLoop=1;jettySize=auto;html=1;entryX=0.5;entryY=0;entryDx=0;entryDy=0;" edge="1" parent="GZV6AmubJmzLLc3v1_bx-1" source="FgeCXVC08KKCuWiRvYAd-20" target="FgeCXVC08KKCuWiRvYAd-27">
          <mxGeometry relative="1" as="geometry">
            <Array as="points">
              <mxPoint x="720" y="1550" />
              <mxPoint x="720" y="200" />
              <mxPoint x="1070" y="200" />
            </Array>
          </mxGeometry>
        </mxCell>
        <mxCell id="FgeCXVC08KKCuWiRvYAd-20" value="BREAK" style="rounded=1;whiteSpace=wrap;html=1;" vertex="1" parent="GZV6AmubJmzLLc3v1_bx-1">
          <mxGeometry x="550" y="1530" width="145" height="40" as="geometry" />
        </mxCell>
        <mxCell id="FgeCXVC08KKCuWiRvYAd-21" value="True" style="text;html=1;align=center;verticalAlign=middle;resizable=0;points=[];autosize=1;strokeColor=none;" vertex="1" parent="GZV6AmubJmzLLc3v1_bx-1">
          <mxGeometry x="230" y="1600" width="40" height="20" as="geometry" />
        </mxCell>
        <mxCell id="FgeCXVC08KKCuWiRvYAd-22" style="edgeStyle=orthogonalEdgeStyle;rounded=0;orthogonalLoop=1;jettySize=auto;html=1;entryX=0;entryY=0.5;entryDx=0;entryDy=0;" edge="1" parent="GZV6AmubJmzLLc3v1_bx-1" source="FgeCXVC08KKCuWiRvYAd-23" target="FgeCXVC08KKCuWiRvYAd-11">
          <mxGeometry relative="1" as="geometry">
            <Array as="points">
              <mxPoint x="130" y="1660" />
              <mxPoint x="130" y="1325" />
            </Array>
          </mxGeometry>
        </mxCell>
        <mxCell id="FgeCXVC08KKCuWiRvYAd-23" value="PASS" style="rounded=1;whiteSpace=wrap;html=1;" vertex="1" parent="GZV6AmubJmzLLc3v1_bx-1">
          <mxGeometry x="158" y="1640" width="145" height="40" as="geometry" />
        </mxCell>
        <mxCell id="FgeCXVC08KKCuWiRvYAd-24" value="RETURN" style="ellipse;whiteSpace=wrap;html=1;" vertex="1" parent="GZV6AmubJmzLLc3v1_bx-1">
          <mxGeometry x="390" y="1630" width="90" height="80" as="geometry" />
        </mxCell>
        <mxCell id="FgeCXVC08KKCuWiRvYAd-26" value="" style="edgeStyle=orthogonalEdgeStyle;rounded=0;orthogonalLoop=1;jettySize=auto;html=1;" edge="1" parent="GZV6AmubJmzLLc3v1_bx-1" source="FgeCXVC08KKCuWiRvYAd-27" target="FgeCXVC08KKCuWiRvYAd-29">
          <mxGeometry relative="1" as="geometry" />
        </mxCell>
        <mxCell id="FgeCXVC08KKCuWiRvYAd-27" value="to_date = select_date(&quot;To: &quot;, user_data)" style="shape=process;whiteSpace=wrap;html=1;backgroundOutline=1;" vertex="1" parent="GZV6AmubJmzLLc3v1_bx-1">
          <mxGeometry x="950" y="240" width="240" height="50" as="geometry" />
        </mxCell>
        <mxCell id="FgeCXVC08KKCuWiRvYAd-28" style="edgeStyle=orthogonalEdgeStyle;rounded=0;orthogonalLoop=1;jettySize=auto;html=1;entryX=0.5;entryY=0;entryDx=0;entryDy=0;" edge="1" parent="GZV6AmubJmzLLc3v1_bx-1" source="FgeCXVC08KKCuWiRvYAd-29" target="FgeCXVC08KKCuWiRvYAd-32">
          <mxGeometry relative="1" as="geometry" />
        </mxCell>
        <mxCell id="FgeCXVC08KKCuWiRvYAd-29" value="PRINT(&quot;&quot;)" style="rounded=1;whiteSpace=wrap;html=1;" vertex="1" parent="GZV6AmubJmzLLc3v1_bx-1">
          <mxGeometry x="955" y="350" width="230" height="40" as="geometry" />
        </mxCell>
        <mxCell id="FgeCXVC08KKCuWiRvYAd-30" value="" style="edgeStyle=orthogonalEdgeStyle;rounded=0;orthogonalLoop=1;jettySize=auto;html=1;" edge="1" parent="GZV6AmubJmzLLc3v1_bx-1" source="FgeCXVC08KKCuWiRvYAd-32" target="FgeCXVC08KKCuWiRvYAd-35">
          <mxGeometry relative="1" as="geometry" />
        </mxCell>
        <mxCell id="FgeCXVC08KKCuWiRvYAd-31" value="" style="edgeStyle=orthogonalEdgeStyle;rounded=0;orthogonalLoop=1;jettySize=auto;html=1;" edge="1" parent="GZV6AmubJmzLLc3v1_bx-1" source="FgeCXVC08KKCuWiRvYAd-32" target="FgeCXVC08KKCuWiRvYAd-39">
          <mxGeometry relative="1" as="geometry" />
        </mxCell>
        <mxCell id="FgeCXVC08KKCuWiRvYAd-32" value="to_date == 1" style="rhombus;whiteSpace=wrap;html=1;" vertex="1" parent="GZV6AmubJmzLLc3v1_bx-1">
          <mxGeometry x="805" y="440" width="110" height="100" as="geometry" />
        </mxCell>
        <mxCell id="FgeCXVC08KKCuWiRvYAd-33" value="" style="edgeStyle=orthogonalEdgeStyle;rounded=0;orthogonalLoop=1;jettySize=auto;html=1;" edge="1" parent="GZV6AmubJmzLLc3v1_bx-1" source="FgeCXVC08KKCuWiRvYAd-35" target="FgeCXVC08KKCuWiRvYAd-36">
          <mxGeometry relative="1" as="geometry" />
        </mxCell>
        <mxCell id="FgeCXVC08KKCuWiRvYAd-34" value="" style="edgeStyle=orthogonalEdgeStyle;rounded=0;orthogonalLoop=1;jettySize=auto;html=1;" edge="1" parent="GZV6AmubJmzLLc3v1_bx-1" source="FgeCXVC08KKCuWiRvYAd-35" target="FgeCXVC08KKCuWiRvYAd-40">
          <mxGeometry relative="1" as="geometry" />
        </mxCell>
        <mxCell id="FgeCXVC08KKCuWiRvYAd-35" value="to_date == 2" style="rhombus;whiteSpace=wrap;html=1;" vertex="1" parent="GZV6AmubJmzLLc3v1_bx-1">
          <mxGeometry x="1010" y="440" width="110" height="100" as="geometry" />
        </mxCell>
        <mxCell id="FgeCXVC08KKCuWiRvYAd-58" style="edgeStyle=orthogonalEdgeStyle;rounded=0;orthogonalLoop=1;jettySize=auto;html=1;entryX=0.5;entryY=0;entryDx=0;entryDy=0;" edge="1" parent="GZV6AmubJmzLLc3v1_bx-1" source="FgeCXVC08KKCuWiRvYAd-36" target="FgeCXVC08KKCuWiRvYAd-44">
          <mxGeometry relative="1" as="geometry">
            <Array as="points">
              <mxPoint x="1253" y="670" />
              <mxPoint x="1070" y="670" />
            </Array>
          </mxGeometry>
        </mxCell>
        <mxCell id="FgeCXVC08KKCuWiRvYAd-36" value="BREAK" style="rounded=1;whiteSpace=wrap;html=1;" vertex="1" parent="GZV6AmubJmzLLc3v1_bx-1">
          <mxGeometry x="1180" y="470" width="145" height="40" as="geometry" />
        </mxCell>
        <mxCell id="FgeCXVC08KKCuWiRvYAd-37" value="True" style="text;html=1;align=center;verticalAlign=middle;resizable=0;points=[];autosize=1;strokeColor=none;" vertex="1" parent="GZV6AmubJmzLLc3v1_bx-1">
          <mxGeometry x="860" y="540" width="40" height="20" as="geometry" />
        </mxCell>
        <mxCell id="FgeCXVC08KKCuWiRvYAd-38" style="edgeStyle=orthogonalEdgeStyle;rounded=0;orthogonalLoop=1;jettySize=auto;html=1;entryX=0;entryY=0.5;entryDx=0;entryDy=0;" edge="1" parent="GZV6AmubJmzLLc3v1_bx-1" source="FgeCXVC08KKCuWiRvYAd-39" target="FgeCXVC08KKCuWiRvYAd-27">
          <mxGeometry relative="1" as="geometry">
            <Array as="points">
              <mxPoint x="760" y="600" />
              <mxPoint x="760" y="265" />
            </Array>
          </mxGeometry>
        </mxCell>
        <mxCell id="FgeCXVC08KKCuWiRvYAd-39" value="PASS" style="rounded=1;whiteSpace=wrap;html=1;" vertex="1" parent="GZV6AmubJmzLLc3v1_bx-1">
          <mxGeometry x="788" y="580" width="145" height="40" as="geometry" />
        </mxCell>
        <mxCell id="FgeCXVC08KKCuWiRvYAd-40" value="RETURN" style="ellipse;whiteSpace=wrap;html=1;" vertex="1" parent="GZV6AmubJmzLLc3v1_bx-1">
          <mxGeometry x="1020" y="570" width="90" height="80" as="geometry" />
        </mxCell>
        <mxCell id="FgeCXVC08KKCuWiRvYAd-43" value="" style="edgeStyle=orthogonalEdgeStyle;rounded=0;orthogonalLoop=1;jettySize=auto;html=1;" edge="1" parent="GZV6AmubJmzLLc3v1_bx-1" source="FgeCXVC08KKCuWiRvYAd-44" target="FgeCXVC08KKCuWiRvYAd-46">
          <mxGeometry relative="1" as="geometry" />
        </mxCell>
        <mxCell id="FgeCXVC08KKCuWiRvYAd-44" value="to_time = select_time(&quot;To: &quot;)" style="shape=process;whiteSpace=wrap;html=1;backgroundOutline=1;" vertex="1" parent="GZV6AmubJmzLLc3v1_bx-1">
          <mxGeometry x="950" y="710" width="240" height="50" as="geometry" />
        </mxCell>
        <mxCell id="FgeCXVC08KKCuWiRvYAd-45" style="edgeStyle=orthogonalEdgeStyle;rounded=0;orthogonalLoop=1;jettySize=auto;html=1;entryX=0.5;entryY=0;entryDx=0;entryDy=0;" edge="1" parent="GZV6AmubJmzLLc3v1_bx-1" source="FgeCXVC08KKCuWiRvYAd-46" target="FgeCXVC08KKCuWiRvYAd-49">
          <mxGeometry relative="1" as="geometry" />
        </mxCell>
        <mxCell id="FgeCXVC08KKCuWiRvYAd-46" value="PRINT(&quot;&quot;)" style="rounded=1;whiteSpace=wrap;html=1;" vertex="1" parent="GZV6AmubJmzLLc3v1_bx-1">
          <mxGeometry x="955" y="820" width="230" height="40" as="geometry" />
        </mxCell>
        <mxCell id="FgeCXVC08KKCuWiRvYAd-47" value="" style="edgeStyle=orthogonalEdgeStyle;rounded=0;orthogonalLoop=1;jettySize=auto;html=1;" edge="1" parent="GZV6AmubJmzLLc3v1_bx-1" source="FgeCXVC08KKCuWiRvYAd-49" target="FgeCXVC08KKCuWiRvYAd-52">
          <mxGeometry relative="1" as="geometry" />
        </mxCell>
        <mxCell id="FgeCXVC08KKCuWiRvYAd-48" value="" style="edgeStyle=orthogonalEdgeStyle;rounded=0;orthogonalLoop=1;jettySize=auto;html=1;" edge="1" parent="GZV6AmubJmzLLc3v1_bx-1" source="FgeCXVC08KKCuWiRvYAd-49" target="FgeCXVC08KKCuWiRvYAd-56">
          <mxGeometry relative="1" as="geometry" />
        </mxCell>
        <mxCell id="FgeCXVC08KKCuWiRvYAd-49" value="to_time == 1" style="rhombus;whiteSpace=wrap;html=1;" vertex="1" parent="GZV6AmubJmzLLc3v1_bx-1">
          <mxGeometry x="805" y="910" width="110" height="100" as="geometry" />
        </mxCell>
        <mxCell id="FgeCXVC08KKCuWiRvYAd-50" value="" style="edgeStyle=orthogonalEdgeStyle;rounded=0;orthogonalLoop=1;jettySize=auto;html=1;" edge="1" parent="GZV6AmubJmzLLc3v1_bx-1" source="FgeCXVC08KKCuWiRvYAd-52" target="FgeCXVC08KKCuWiRvYAd-53">
          <mxGeometry relative="1" as="geometry" />
        </mxCell>
        <mxCell id="FgeCXVC08KKCuWiRvYAd-51" value="" style="edgeStyle=orthogonalEdgeStyle;rounded=0;orthogonalLoop=1;jettySize=auto;html=1;" edge="1" parent="GZV6AmubJmzLLc3v1_bx-1" source="FgeCXVC08KKCuWiRvYAd-52" target="FgeCXVC08KKCuWiRvYAd-57">
          <mxGeometry relative="1" as="geometry" />
        </mxCell>
        <mxCell id="FgeCXVC08KKCuWiRvYAd-52" value="to_time == 2" style="rhombus;whiteSpace=wrap;html=1;" vertex="1" parent="GZV6AmubJmzLLc3v1_bx-1">
          <mxGeometry x="1010" y="910" width="110" height="100" as="geometry" />
        </mxCell>
        <mxCell id="FgeCXVC08KKCuWiRvYAd-60" style="edgeStyle=orthogonalEdgeStyle;rounded=0;orthogonalLoop=1;jettySize=auto;html=1;entryX=0.5;entryY=0;entryDx=0;entryDy=0;" edge="1" parent="GZV6AmubJmzLLc3v1_bx-1" source="FgeCXVC08KKCuWiRvYAd-53" target="FgeCXVC08KKCuWiRvYAd-59">
          <mxGeometry relative="1" as="geometry">
            <Array as="points">
              <mxPoint x="1253" y="1140" />
              <mxPoint x="1080" y="1140" />
            </Array>
          </mxGeometry>
        </mxCell>
        <mxCell id="FgeCXVC08KKCuWiRvYAd-53" value="BREAK" style="rounded=1;whiteSpace=wrap;html=1;" vertex="1" parent="GZV6AmubJmzLLc3v1_bx-1">
          <mxGeometry x="1180" y="940" width="145" height="40" as="geometry" />
        </mxCell>
        <mxCell id="FgeCXVC08KKCuWiRvYAd-54" value="True" style="text;html=1;align=center;verticalAlign=middle;resizable=0;points=[];autosize=1;strokeColor=none;" vertex="1" parent="GZV6AmubJmzLLc3v1_bx-1">
          <mxGeometry x="860" y="1010" width="40" height="20" as="geometry" />
        </mxCell>
        <mxCell id="FgeCXVC08KKCuWiRvYAd-55" style="edgeStyle=orthogonalEdgeStyle;rounded=0;orthogonalLoop=1;jettySize=auto;html=1;entryX=0;entryY=0.5;entryDx=0;entryDy=0;" edge="1" parent="GZV6AmubJmzLLc3v1_bx-1" source="FgeCXVC08KKCuWiRvYAd-56" target="FgeCXVC08KKCuWiRvYAd-44">
          <mxGeometry relative="1" as="geometry">
            <Array as="points">
              <mxPoint x="760" y="1070" />
              <mxPoint x="760" y="735" />
            </Array>
          </mxGeometry>
        </mxCell>
        <mxCell id="FgeCXVC08KKCuWiRvYAd-56" value="PASS" style="rounded=1;whiteSpace=wrap;html=1;" vertex="1" parent="GZV6AmubJmzLLc3v1_bx-1">
          <mxGeometry x="788" y="1050" width="145" height="40" as="geometry" />
        </mxCell>
        <mxCell id="FgeCXVC08KKCuWiRvYAd-57" value="RETURN" style="ellipse;whiteSpace=wrap;html=1;" vertex="1" parent="GZV6AmubJmzLLc3v1_bx-1">
          <mxGeometry x="1020" y="1040" width="90" height="80" as="geometry" />
        </mxCell>
        <mxCell id="FgeCXVC08KKCuWiRvYAd-62" value="" style="edgeStyle=orthogonalEdgeStyle;rounded=0;orthogonalLoop=1;jettySize=auto;html=1;" edge="1" parent="GZV6AmubJmzLLc3v1_bx-1" source="FgeCXVC08KKCuWiRvYAd-59" target="FgeCXVC08KKCuWiRvYAd-61">
          <mxGeometry relative="1" as="geometry" />
        </mxCell>
        <mxCell id="FgeCXVC08KKCuWiRvYAd-59" value="from_datetime = datetime.datetime.strptime(from_date + &quot; &quot; + from_time, &quot;%d-%m-%Y %H:%M&quot;)" style="rounded=1;whiteSpace=wrap;html=1;" vertex="1" parent="GZV6AmubJmzLLc3v1_bx-1">
          <mxGeometry x="900" y="1190" width="360" height="40" as="geometry" />
        </mxCell>
        <mxCell id="FgeCXVC08KKCuWiRvYAd-72" value="" style="edgeStyle=orthogonalEdgeStyle;rounded=0;orthogonalLoop=1;jettySize=auto;html=1;" edge="1" parent="GZV6AmubJmzLLc3v1_bx-1" source="FgeCXVC08KKCuWiRvYAd-61" target="FgeCXVC08KKCuWiRvYAd-63">
          <mxGeometry relative="1" as="geometry" />
        </mxCell>
        <mxCell id="FgeCXVC08KKCuWiRvYAd-61" value="to_datetime = datetime.datetime.strptime(to_date + &quot; &quot; + to_time, &quot;%d-%m-%Y %H:%M&quot;)" style="rounded=1;whiteSpace=wrap;html=1;" vertex="1" parent="GZV6AmubJmzLLc3v1_bx-1">
          <mxGeometry x="900" y="1270" width="360" height="40" as="geometry" />
        </mxCell>
        <mxCell id="FgeCXVC08KKCuWiRvYAd-73" value="" style="edgeStyle=orthogonalEdgeStyle;rounded=0;orthogonalLoop=1;jettySize=auto;html=1;" edge="1" parent="GZV6AmubJmzLLc3v1_bx-1" source="FgeCXVC08KKCuWiRvYAd-63" target="FgeCXVC08KKCuWiRvYAd-65">
          <mxGeometry relative="1" as="geometry" />
        </mxCell>
        <mxCell id="FgeCXVC08KKCuWiRvYAd-63" value="from_date = from_datetime.strftime(&quot;%d-%m-%Y&quot;)" style="rounded=1;whiteSpace=wrap;html=1;" vertex="1" parent="GZV6AmubJmzLLc3v1_bx-1">
          <mxGeometry x="900" y="1350" width="360" height="40" as="geometry" />
        </mxCell>
        <mxCell id="FgeCXVC08KKCuWiRvYAd-64" value="" style="edgeStyle=orthogonalEdgeStyle;rounded=0;orthogonalLoop=1;jettySize=auto;html=1;" edge="1" parent="GZV6AmubJmzLLc3v1_bx-1" source="FgeCXVC08KKCuWiRvYAd-65" target="FgeCXVC08KKCuWiRvYAd-66">
          <mxGeometry relative="1" as="geometry" />
        </mxCell>
        <mxCell id="FgeCXVC08KKCuWiRvYAd-65" value="from_time = from_datetime.strftime(&quot;%H:%M:%S&quot;)" style="rounded=1;whiteSpace=wrap;html=1;" vertex="1" parent="GZV6AmubJmzLLc3v1_bx-1">
          <mxGeometry x="900" y="1420" width="360" height="40" as="geometry" />
        </mxCell>
        <mxCell id="FgeCXVC08KKCuWiRvYAd-74" value="" style="edgeStyle=orthogonalEdgeStyle;rounded=0;orthogonalLoop=1;jettySize=auto;html=1;" edge="1" parent="GZV6AmubJmzLLc3v1_bx-1" source="FgeCXVC08KKCuWiRvYAd-66" target="FgeCXVC08KKCuWiRvYAd-67">
          <mxGeometry relative="1" as="geometry" />
        </mxCell>
        <mxCell id="FgeCXVC08KKCuWiRvYAd-66" value="to_date = to_datetime.strftime(&quot;%d-%m-%Y&quot;)" style="rounded=1;whiteSpace=wrap;html=1;" vertex="1" parent="GZV6AmubJmzLLc3v1_bx-1">
          <mxGeometry x="900" y="1500" width="360" height="40" as="geometry" />
        </mxCell>
        <mxCell id="FgeCXVC08KKCuWiRvYAd-75" value="" style="edgeStyle=orthogonalEdgeStyle;rounded=0;orthogonalLoop=1;jettySize=auto;html=1;" edge="1" parent="GZV6AmubJmzLLc3v1_bx-1" source="FgeCXVC08KKCuWiRvYAd-67" target="FgeCXVC08KKCuWiRvYAd-69">
          <mxGeometry relative="1" as="geometry" />
        </mxCell>
        <mxCell id="FgeCXVC08KKCuWiRvYAd-67" value="to_time = to_datetime.strftime(&quot;%H:%M:%S&quot;)" style="rounded=1;whiteSpace=wrap;html=1;" vertex="1" parent="GZV6AmubJmzLLc3v1_bx-1">
          <mxGeometry x="900" y="1570" width="360" height="40" as="geometry" />
        </mxCell>
        <mxCell id="FgeCXVC08KKCuWiRvYAd-68" value="" style="edgeStyle=orthogonalEdgeStyle;rounded=0;orthogonalLoop=1;jettySize=auto;html=1;" edge="1" parent="GZV6AmubJmzLLc3v1_bx-1" source="FgeCXVC08KKCuWiRvYAd-69" target="FgeCXVC08KKCuWiRvYAd-70">
          <mxGeometry relative="1" as="geometry" />
        </mxCell>
        <mxCell id="FgeCXVC08KKCuWiRvYAd-69" value="now_datetime = datetime.datetime.now()" style="rounded=1;whiteSpace=wrap;html=1;" vertex="1" parent="GZV6AmubJmzLLc3v1_bx-1">
          <mxGeometry x="900" y="1640" width="360" height="40" as="geometry" />
        </mxCell>
        <mxCell id="FgeCXVC08KKCuWiRvYAd-76" value="" style="edgeStyle=orthogonalEdgeStyle;rounded=0;orthogonalLoop=1;jettySize=auto;html=1;" edge="1" parent="GZV6AmubJmzLLc3v1_bx-1" source="FgeCXVC08KKCuWiRvYAd-70" target="FgeCXVC08KKCuWiRvYAd-71">
          <mxGeometry relative="1" as="geometry" />
        </mxCell>
        <mxCell id="FgeCXVC08KKCuWiRvYAd-70" value="now_date = now_datetime.strftime(&quot;%d-%m-%Y&quot;)" style="rounded=1;whiteSpace=wrap;html=1;" vertex="1" parent="GZV6AmubJmzLLc3v1_bx-1">
          <mxGeometry x="900" y="1710" width="360" height="40" as="geometry" />
        </mxCell>
        <mxCell id="tAM4ypn88uc7xfttjqA9-1" value="" style="edgeStyle=orthogonalEdgeStyle;rounded=0;orthogonalLoop=1;jettySize=auto;html=1;" edge="1" parent="GZV6AmubJmzLLc3v1_bx-1" source="FgeCXVC08KKCuWiRvYAd-71" target="tAM4ypn88uc7xfttjqA9-0">
          <mxGeometry relative="1" as="geometry" />
        </mxCell>
        <mxCell id="FgeCXVC08KKCuWiRvYAd-71" value="now_time = now_datetime.strftime(&quot;%H:%M:%S&quot;)" style="rounded=1;whiteSpace=wrap;html=1;" vertex="1" parent="GZV6AmubJmzLLc3v1_bx-1">
          <mxGeometry x="900" y="1790" width="360" height="40" as="geometry" />
        </mxCell>
        <mxCell id="FgeCXVC08KKCuWiRvYAd-77" value="2" style="ellipse;whiteSpace=wrap;html=1;aspect=fixed;" vertex="1" parent="GZV6AmubJmzLLc3v1_bx-1">
          <mxGeometry x="1060" y="2080" width="40" height="40" as="geometry" />
        </mxCell>
        <mxCell id="GDQS5WbP0xOVJpDG9_ra-0" value="True" style="text;html=1;align=center;verticalAlign=middle;resizable=0;points=[];autosize=1;strokeColor=none;" vertex="1" parent="GZV6AmubJmzLLc3v1_bx-1">
          <mxGeometry x="440" y="1140" width="40" height="20" as="geometry" />
        </mxCell>
        <mxCell id="GDQS5WbP0xOVJpDG9_ra-1" value="True" style="text;html=1;align=center;verticalAlign=middle;resizable=0;points=[];autosize=1;strokeColor=none;" vertex="1" parent="GZV6AmubJmzLLc3v1_bx-1">
          <mxGeometry x="438" y="1593" width="40" height="20" as="geometry" />
        </mxCell>
        <mxCell id="GDQS5WbP0xOVJpDG9_ra-2" value="False" style="text;html=1;align=center;verticalAlign=middle;resizable=0;points=[];autosize=1;strokeColor=none;" vertex="1" parent="GZV6AmubJmzLLc3v1_bx-1">
          <mxGeometry x="285" y="1070" width="40" height="20" as="geometry" />
        </mxCell>
        <mxCell id="GDQS5WbP0xOVJpDG9_ra-3" value="False" style="text;html=1;align=center;verticalAlign=middle;resizable=0;points=[];autosize=1;strokeColor=none;" vertex="1" parent="GZV6AmubJmzLLc3v1_bx-1">
          <mxGeometry x="491" y="1070" width="40" height="20" as="geometry" />
        </mxCell>
        <mxCell id="GDQS5WbP0xOVJpDG9_ra-4" value="False" style="text;html=1;align=center;verticalAlign=middle;resizable=0;points=[];autosize=1;strokeColor=none;" vertex="1" parent="GZV6AmubJmzLLc3v1_bx-1">
          <mxGeometry x="285" y="1530" width="40" height="20" as="geometry" />
        </mxCell>
        <mxCell id="GDQS5WbP0xOVJpDG9_ra-5" value="False" style="text;html=1;align=center;verticalAlign=middle;resizable=0;points=[];autosize=1;strokeColor=none;" vertex="1" parent="GZV6AmubJmzLLc3v1_bx-1">
          <mxGeometry x="493" y="1530" width="40" height="20" as="geometry" />
        </mxCell>
        <mxCell id="GDQS5WbP0xOVJpDG9_ra-6" value="True" style="text;html=1;align=center;verticalAlign=middle;resizable=0;points=[];autosize=1;strokeColor=none;" vertex="1" parent="GZV6AmubJmzLLc3v1_bx-1">
          <mxGeometry x="1070" y="540" width="40" height="20" as="geometry" />
        </mxCell>
        <mxCell id="GDQS5WbP0xOVJpDG9_ra-7" value="False" style="text;html=1;align=center;verticalAlign=middle;resizable=0;points=[];autosize=1;strokeColor=none;" vertex="1" parent="GZV6AmubJmzLLc3v1_bx-1">
          <mxGeometry x="915" y="470" width="40" height="20" as="geometry" />
        </mxCell>
        <mxCell id="GDQS5WbP0xOVJpDG9_ra-8" value="False" style="text;html=1;align=center;verticalAlign=middle;resizable=0;points=[];autosize=1;strokeColor=none;" vertex="1" parent="GZV6AmubJmzLLc3v1_bx-1">
          <mxGeometry x="1120" y="470" width="40" height="20" as="geometry" />
        </mxCell>
        <mxCell id="GDQS5WbP0xOVJpDG9_ra-9" value="True" style="text;html=1;align=center;verticalAlign=middle;resizable=0;points=[];autosize=1;strokeColor=none;" vertex="1" parent="GZV6AmubJmzLLc3v1_bx-1">
          <mxGeometry x="1070" y="1000" width="40" height="20" as="geometry" />
        </mxCell>
        <mxCell id="GDQS5WbP0xOVJpDG9_ra-10" value="False" style="text;html=1;align=center;verticalAlign=middle;resizable=0;points=[];autosize=1;strokeColor=none;" vertex="1" parent="GZV6AmubJmzLLc3v1_bx-1">
          <mxGeometry x="915" y="940" width="40" height="20" as="geometry" />
        </mxCell>
        <mxCell id="GDQS5WbP0xOVJpDG9_ra-11" value="False" style="text;html=1;align=center;verticalAlign=middle;resizable=0;points=[];autosize=1;strokeColor=none;" vertex="1" parent="GZV6AmubJmzLLc3v1_bx-1">
          <mxGeometry x="1120" y="940" width="40" height="20" as="geometry" />
        </mxCell>
        <mxCell id="tAM4ypn88uc7xfttjqA9-2" value="" style="edgeStyle=orthogonalEdgeStyle;rounded=0;orthogonalLoop=1;jettySize=auto;html=1;" edge="1" parent="GZV6AmubJmzLLc3v1_bx-1" source="tAM4ypn88uc7xfttjqA9-0" target="FgeCXVC08KKCuWiRvYAd-77">
          <mxGeometry relative="1" as="geometry" />
        </mxCell>
        <mxCell id="tAM4ypn88uc7xfttjqA9-4" style="edgeStyle=orthogonalEdgeStyle;rounded=0;orthogonalLoop=1;jettySize=auto;html=1;exitX=0;exitY=0.5;exitDx=0;exitDy=0;" edge="1" parent="GZV6AmubJmzLLc3v1_bx-1" source="tAM4ypn88uc7xfttjqA9-6">
          <mxGeometry relative="1" as="geometry">
            <mxPoint x="440" y="797.6470588235294" as="targetPoint" />
            <mxPoint x="490" y="1960" as="sourcePoint" />
            <Array as="points">
              <mxPoint x="60" y="1960" />
              <mxPoint x="60" y="798" />
            </Array>
          </mxGeometry>
        </mxCell>
        <mxCell id="tAM4ypn88uc7xfttjqA9-8" style="edgeStyle=orthogonalEdgeStyle;rounded=0;orthogonalLoop=1;jettySize=auto;html=1;entryX=1;entryY=0.5;entryDx=0;entryDy=0;" edge="1" parent="GZV6AmubJmzLLc3v1_bx-1" source="tAM4ypn88uc7xfttjqA9-0" target="tAM4ypn88uc7xfttjqA9-6">
          <mxGeometry relative="1" as="geometry" />
        </mxCell>
        <mxCell id="tAM4ypn88uc7xfttjqA9-0" value="from_datetime &amp;lt; to_datetime AND now_datetime &amp;lt; from_datetime" style="rhombus;whiteSpace=wrap;html=1;" vertex="1" parent="GZV6AmubJmzLLc3v1_bx-1">
          <mxGeometry x="860" y="1895" width="440" height="130" as="geometry" />
        </mxCell>
        <mxCell id="tAM4ypn88uc7xfttjqA9-3" value="True" style="text;html=1;align=center;verticalAlign=middle;resizable=0;points=[];autosize=1;strokeColor=none;" vertex="1" parent="GZV6AmubJmzLLc3v1_bx-1">
          <mxGeometry x="1080" y="2030" width="40" height="20" as="geometry" />
        </mxCell>
        <mxCell id="tAM4ypn88uc7xfttjqA9-5" value="False" style="text;html=1;align=center;verticalAlign=middle;resizable=0;points=[];autosize=1;strokeColor=none;" vertex="1" parent="GZV6AmubJmzLLc3v1_bx-1">
          <mxGeometry x="820" y="1930" width="40" height="20" as="geometry" />
        </mxCell>
        <mxCell id="tAM4ypn88uc7xfttjqA9-6" value="PRINT(&quot;You can only book a date for a period IN the future.&quot;)" style="rounded=1;whiteSpace=wrap;html=1;" vertex="1" parent="GZV6AmubJmzLLc3v1_bx-1">
          <mxGeometry x="500" y="1940" width="219" height="40" as="geometry" />
        </mxCell>
      </root>
    </mxGraphModel>
  </diagram>
  <diagram id="oleJ4TOpPdHe16MolnuG" name="Page-3">
    <mxGraphModel dx="1048" dy="688" grid="1" gridSize="10" guides="1" tooltips="1" connect="1" arrows="1" fold="1" page="1" pageScale="1" pageWidth="3300" pageHeight="4681" math="0" shadow="0">
      <root>
        <mxCell id="gQxRfkXDCn6sZibHlR3a-0" />
        <mxCell id="gQxRfkXDCn6sZibHlR3a-1" parent="gQxRfkXDCn6sZibHlR3a-0" />
        <mxCell id="VfNBu-bK9h9McsEV-3Qs-0" value="" style="edgeStyle=orthogonalEdgeStyle;rounded=0;orthogonalLoop=1;jettySize=auto;html=1;" parent="gQxRfkXDCn6sZibHlR3a-1" source="gQxRfkXDCn6sZibHlR3a-2" target="6bHYgJF07cxF6IIliWJo-2" edge="1">
          <mxGeometry relative="1" as="geometry" />
        </mxCell>
        <mxCell id="gQxRfkXDCn6sZibHlR3a-2" value="2" style="ellipse;whiteSpace=wrap;html=1;aspect=fixed;" parent="gQxRfkXDCn6sZibHlR3a-1" vertex="1">
          <mxGeometry x="575" y="170" width="40" height="40" as="geometry" />
        </mxCell>
        <mxCell id="9dr7ffE2T50aZ6H-HRfk-28" value="" style="edgeStyle=orthogonalEdgeStyle;rounded=0;orthogonalLoop=1;jettySize=auto;html=1;" parent="gQxRfkXDCn6sZibHlR3a-1" source="6bHYgJF07cxF6IIliWJo-2" target="9dr7ffE2T50aZ6H-HRfk-0" edge="1">
          <mxGeometry relative="1" as="geometry" />
        </mxCell>
        <mxCell id="6bHYgJF07cxF6IIliWJo-2" value="result = compare_quantity(car_id, data_transactions, from_datetime, to_datetime, data_carlist)" style="shape=process;whiteSpace=wrap;html=1;backgroundOutline=1;" parent="gQxRfkXDCn6sZibHlR3a-1" vertex="1">
          <mxGeometry x="450" y="340" width="290" height="80" as="geometry" />
        </mxCell>
        <mxCell id="9dr7ffE2T50aZ6H-HRfk-7" style="edgeStyle=orthogonalEdgeStyle;rounded=0;orthogonalLoop=1;jettySize=auto;html=1;entryX=0.5;entryY=0;entryDx=0;entryDy=0;" parent="gQxRfkXDCn6sZibHlR3a-1" source="9dr7ffE2T50aZ6H-HRfk-0" target="9dr7ffE2T50aZ6H-HRfk-2" edge="1">
          <mxGeometry relative="1" as="geometry" />
        </mxCell>
        <mxCell id="9dr7ffE2T50aZ6H-HRfk-9" value="" style="edgeStyle=orthogonalEdgeStyle;rounded=0;orthogonalLoop=1;jettySize=auto;html=1;" parent="gQxRfkXDCn6sZibHlR3a-1" source="9dr7ffE2T50aZ6H-HRfk-0" target="9dr7ffE2T50aZ6H-HRfk-8" edge="1">
          <mxGeometry relative="1" as="geometry" />
        </mxCell>
        <mxCell id="9dr7ffE2T50aZ6H-HRfk-0" value="result == 0" style="rhombus;whiteSpace=wrap;html=1;" parent="gQxRfkXDCn6sZibHlR3a-1" vertex="1">
          <mxGeometry x="540" y="480" width="110" height="100" as="geometry" />
        </mxCell>
        <mxCell id="9dr7ffE2T50aZ6H-HRfk-4" value="" style="edgeStyle=orthogonalEdgeStyle;rounded=0;orthogonalLoop=1;jettySize=auto;html=1;" parent="gQxRfkXDCn6sZibHlR3a-1" source="9dr7ffE2T50aZ6H-HRfk-2" target="9dr7ffE2T50aZ6H-HRfk-3" edge="1">
          <mxGeometry relative="1" as="geometry" />
        </mxCell>
        <mxCell id="9dr7ffE2T50aZ6H-HRfk-2" value="PRINT(&quot;This model of car have all been rent out.&quot;)" style="rounded=1;whiteSpace=wrap;html=1;" parent="gQxRfkXDCn6sZibHlR3a-1" vertex="1">
          <mxGeometry x="180" y="620" width="230" height="40" as="geometry" />
        </mxCell>
        <mxCell id="9dr7ffE2T50aZ6H-HRfk-6" value="" style="edgeStyle=orthogonalEdgeStyle;rounded=0;orthogonalLoop=1;jettySize=auto;html=1;" parent="gQxRfkXDCn6sZibHlR3a-1" source="9dr7ffE2T50aZ6H-HRfk-3" target="9dr7ffE2T50aZ6H-HRfk-5" edge="1">
          <mxGeometry relative="1" as="geometry" />
        </mxCell>
        <mxCell id="9dr7ffE2T50aZ6H-HRfk-3" value="PRINT(&quot;Please try again&quot;)" style="rounded=1;whiteSpace=wrap;html=1;" parent="gQxRfkXDCn6sZibHlR3a-1" vertex="1">
          <mxGeometry x="180" y="740" width="230" height="40" as="geometry" />
        </mxCell>
        <mxCell id="9dr7ffE2T50aZ6H-HRfk-5" value="RETURN" style="ellipse;whiteSpace=wrap;html=1;" parent="gQxRfkXDCn6sZibHlR3a-1" vertex="1">
          <mxGeometry x="250" y="840" width="90" height="80" as="geometry" />
        </mxCell>
        <mxCell id="9dr7ffE2T50aZ6H-HRfk-11" value="" style="edgeStyle=orthogonalEdgeStyle;rounded=0;orthogonalLoop=1;jettySize=auto;html=1;" parent="gQxRfkXDCn6sZibHlR3a-1" source="9dr7ffE2T50aZ6H-HRfk-8" target="9dr7ffE2T50aZ6H-HRfk-10" edge="1">
          <mxGeometry relative="1" as="geometry" />
        </mxCell>
        <mxCell id="9dr7ffE2T50aZ6H-HRfk-8" value="total_hours = to_datetime - from_datetime" style="rounded=1;whiteSpace=wrap;html=1;" parent="gQxRfkXDCn6sZibHlR3a-1" vertex="1">
          <mxGeometry x="480" y="620" width="230" height="40" as="geometry" />
        </mxCell>
        <mxCell id="9dr7ffE2T50aZ6H-HRfk-13" value="" style="edgeStyle=orthogonalEdgeStyle;rounded=0;orthogonalLoop=1;jettySize=auto;html=1;" parent="gQxRfkXDCn6sZibHlR3a-1" source="9dr7ffE2T50aZ6H-HRfk-10" target="9dr7ffE2T50aZ6H-HRfk-12" edge="1">
          <mxGeometry relative="1" as="geometry" />
        </mxCell>
        <mxCell id="9dr7ffE2T50aZ6H-HRfk-10" value="total_hours = round(total_hours.total_seconds() / 3600, 2)" style="rounded=1;whiteSpace=wrap;html=1;" parent="gQxRfkXDCn6sZibHlR3a-1" vertex="1">
          <mxGeometry x="470" y="740" width="250" height="40" as="geometry" />
        </mxCell>
        <mxCell id="9dr7ffE2T50aZ6H-HRfk-15" value="" style="edgeStyle=orthogonalEdgeStyle;rounded=0;orthogonalLoop=1;jettySize=auto;html=1;" parent="gQxRfkXDCn6sZibHlR3a-1" source="9dr7ffE2T50aZ6H-HRfk-12" target="9dr7ffE2T50aZ6H-HRfk-14" edge="1">
          <mxGeometry relative="1" as="geometry" />
        </mxCell>
        <mxCell id="9dr7ffE2T50aZ6H-HRfk-12" value="total_price = round(total_hours * int(data[6]), 2)" style="rounded=1;whiteSpace=wrap;html=1;" parent="gQxRfkXDCn6sZibHlR3a-1" vertex="1">
          <mxGeometry x="470" y="860" width="250" height="40" as="geometry" />
        </mxCell>
        <mxCell id="9dr7ffE2T50aZ6H-HRfk-17" value="" style="edgeStyle=orthogonalEdgeStyle;rounded=0;orthogonalLoop=1;jettySize=auto;html=1;" parent="gQxRfkXDCn6sZibHlR3a-1" source="9dr7ffE2T50aZ6H-HRfk-14" target="9dr7ffE2T50aZ6H-HRfk-16" edge="1">
          <mxGeometry relative="1" as="geometry" />
        </mxCell>
        <mxCell id="9dr7ffE2T50aZ6H-HRfk-27" style="edgeStyle=orthogonalEdgeStyle;rounded=0;orthogonalLoop=1;jettySize=auto;html=1;entryX=0.5;entryY=0;entryDx=0;entryDy=0;" parent="gQxRfkXDCn6sZibHlR3a-1" source="9dr7ffE2T50aZ6H-HRfk-14" target="9dr7ffE2T50aZ6H-HRfk-24" edge="1">
          <mxGeometry relative="1" as="geometry">
            <Array as="points">
              <mxPoint x="790" y="1015" />
              <mxPoint x="790" y="1490" />
            </Array>
          </mxGeometry>
        </mxCell>
        <mxCell id="9dr7ffE2T50aZ6H-HRfk-14" value="user_data[1] == &quot;VIP&quot;" style="rhombus;whiteSpace=wrap;html=1;" parent="gQxRfkXDCn6sZibHlR3a-1" vertex="1">
          <mxGeometry x="510" y="970" width="170" height="90" as="geometry" />
        </mxCell>
        <mxCell id="9dr7ffE2T50aZ6H-HRfk-19" value="" style="edgeStyle=orthogonalEdgeStyle;rounded=0;orthogonalLoop=1;jettySize=auto;html=1;" parent="gQxRfkXDCn6sZibHlR3a-1" source="9dr7ffE2T50aZ6H-HRfk-16" target="9dr7ffE2T50aZ6H-HRfk-18" edge="1">
          <mxGeometry relative="1" as="geometry" />
        </mxCell>
        <mxCell id="9dr7ffE2T50aZ6H-HRfk-16" value="temp = total_price" style="rounded=1;whiteSpace=wrap;html=1;" parent="gQxRfkXDCn6sZibHlR3a-1" vertex="1">
          <mxGeometry x="470" y="1110" width="250" height="40" as="geometry" />
        </mxCell>
        <mxCell id="9dr7ffE2T50aZ6H-HRfk-21" value="" style="edgeStyle=orthogonalEdgeStyle;rounded=0;orthogonalLoop=1;jettySize=auto;html=1;" parent="gQxRfkXDCn6sZibHlR3a-1" source="9dr7ffE2T50aZ6H-HRfk-18" target="9dr7ffE2T50aZ6H-HRfk-20" edge="1">
          <mxGeometry relative="1" as="geometry" />
        </mxCell>
        <mxCell id="9dr7ffE2T50aZ6H-HRfk-18" value="PRINT(&quot;We dected you are a VIP member, you will get a 10% discount&quot;)" style="rounded=1;whiteSpace=wrap;html=1;" parent="gQxRfkXDCn6sZibHlR3a-1" vertex="1">
          <mxGeometry x="470" y="1200" width="250" height="40" as="geometry" />
        </mxCell>
        <mxCell id="9dr7ffE2T50aZ6H-HRfk-23" value="" style="edgeStyle=orthogonalEdgeStyle;rounded=0;orthogonalLoop=1;jettySize=auto;html=1;" parent="gQxRfkXDCn6sZibHlR3a-1" source="9dr7ffE2T50aZ6H-HRfk-20" target="9dr7ffE2T50aZ6H-HRfk-22" edge="1">
          <mxGeometry relative="1" as="geometry" />
        </mxCell>
        <mxCell id="9dr7ffE2T50aZ6H-HRfk-20" value="total_price = round(total_price * 0.9, 2)" style="rounded=1;whiteSpace=wrap;html=1;" parent="gQxRfkXDCn6sZibHlR3a-1" vertex="1">
          <mxGeometry x="470" y="1290" width="250" height="40" as="geometry" />
        </mxCell>
        <mxCell id="9dr7ffE2T50aZ6H-HRfk-22" value="PRINT(&quot;RM&quot; + str(temp) + &quot; * 90% = &quot; + &quot;RM&quot; + str(total_price))" style="rounded=1;whiteSpace=wrap;html=1;" parent="gQxRfkXDCn6sZibHlR3a-1" vertex="1">
          <mxGeometry x="470" y="1390" width="250" height="40" as="geometry" />
        </mxCell>
        <mxCell id="9dr7ffE2T50aZ6H-HRfk-34" value="" style="edgeStyle=orthogonalEdgeStyle;rounded=0;orthogonalLoop=1;jettySize=auto;html=1;" parent="gQxRfkXDCn6sZibHlR3a-1" source="9dr7ffE2T50aZ6H-HRfk-24" target="9dr7ffE2T50aZ6H-HRfk-33" edge="1">
          <mxGeometry relative="1" as="geometry" />
        </mxCell>
        <mxCell id="9dr7ffE2T50aZ6H-HRfk-24" value="voucher = 0" style="rounded=1;whiteSpace=wrap;html=1;" parent="gQxRfkXDCn6sZibHlR3a-1" vertex="1">
          <mxGeometry x="470" y="1540" width="250" height="40" as="geometry" />
        </mxCell>
        <mxCell id="9dr7ffE2T50aZ6H-HRfk-29" value="True" style="text;html=1;align=center;verticalAlign=middle;resizable=0;points=[];autosize=1;strokeColor=none;" parent="gQxRfkXDCn6sZibHlR3a-1" vertex="1">
          <mxGeometry x="500" y="510" width="40" height="20" as="geometry" />
        </mxCell>
        <mxCell id="9dr7ffE2T50aZ6H-HRfk-30" value="False" style="text;html=1;align=center;verticalAlign=middle;resizable=0;points=[];autosize=1;strokeColor=none;" parent="gQxRfkXDCn6sZibHlR3a-1" vertex="1">
          <mxGeometry x="600" y="580" width="40" height="20" as="geometry" />
        </mxCell>
        <mxCell id="9dr7ffE2T50aZ6H-HRfk-31" value="True" style="text;html=1;align=center;verticalAlign=middle;resizable=0;points=[];autosize=1;strokeColor=none;" parent="gQxRfkXDCn6sZibHlR3a-1" vertex="1">
          <mxGeometry x="600" y="1060" width="40" height="20" as="geometry" />
        </mxCell>
        <mxCell id="9dr7ffE2T50aZ6H-HRfk-32" value="False" style="text;html=1;align=center;verticalAlign=middle;resizable=0;points=[];autosize=1;strokeColor=none;" parent="gQxRfkXDCn6sZibHlR3a-1" vertex="1">
          <mxGeometry x="680" y="990" width="40" height="20" as="geometry" />
        </mxCell>
        <mxCell id="9dr7ffE2T50aZ6H-HRfk-45" style="edgeStyle=orthogonalEdgeStyle;rounded=0;orthogonalLoop=1;jettySize=auto;html=1;entryX=0;entryY=0.5;entryDx=0;entryDy=0;" parent="gQxRfkXDCn6sZibHlR3a-1" source="9dr7ffE2T50aZ6H-HRfk-33" target="9dr7ffE2T50aZ6H-HRfk-35" edge="1">
          <mxGeometry relative="1" as="geometry" />
        </mxCell>
        <mxCell id="9dr7ffE2T50aZ6H-HRfk-98" value="" style="edgeStyle=orthogonalEdgeStyle;rounded=0;orthogonalLoop=1;jettySize=auto;html=1;" parent="gQxRfkXDCn6sZibHlR3a-1" source="9dr7ffE2T50aZ6H-HRfk-33" target="9dr7ffE2T50aZ6H-HRfk-97" edge="1">
          <mxGeometry relative="1" as="geometry" />
        </mxCell>
        <mxCell id="9dr7ffE2T50aZ6H-HRfk-33" value="int(user_data[-1]) &gt; 100" style="rhombus;whiteSpace=wrap;html=1;" parent="gQxRfkXDCn6sZibHlR3a-1" vertex="1">
          <mxGeometry x="500" y="1640" width="190" height="120" as="geometry" />
        </mxCell>
        <mxCell id="9dr7ffE2T50aZ6H-HRfk-40" value="" style="edgeStyle=orthogonalEdgeStyle;rounded=0;orthogonalLoop=1;jettySize=auto;html=1;" parent="gQxRfkXDCn6sZibHlR3a-1" source="9dr7ffE2T50aZ6H-HRfk-35" target="9dr7ffE2T50aZ6H-HRfk-39" edge="1">
          <mxGeometry relative="1" as="geometry" />
        </mxCell>
        <mxCell id="9dr7ffE2T50aZ6H-HRfk-35" value="PRINT(&quot;Points currently: &quot; + str(user_data[-1]))" style="rounded=1;whiteSpace=wrap;html=1;" parent="gQxRfkXDCn6sZibHlR3a-1" vertex="1">
          <mxGeometry x="950" y="240" width="230" height="40" as="geometry" />
        </mxCell>
        <mxCell id="9dr7ffE2T50aZ6H-HRfk-47" value="" style="edgeStyle=orthogonalEdgeStyle;rounded=0;orthogonalLoop=1;jettySize=auto;html=1;" parent="gQxRfkXDCn6sZibHlR3a-1" source="9dr7ffE2T50aZ6H-HRfk-39" target="9dr7ffE2T50aZ6H-HRfk-46" edge="1">
          <mxGeometry relative="1" as="geometry" />
        </mxCell>
        <mxCell id="9dr7ffE2T50aZ6H-HRfk-39" value="PRINT(&quot;100 points = RM5 voucher&quot;)" style="rounded=1;whiteSpace=wrap;html=1;" parent="gQxRfkXDCn6sZibHlR3a-1" vertex="1">
          <mxGeometry x="950" y="320" width="230" height="40" as="geometry" />
        </mxCell>
        <mxCell id="9dr7ffE2T50aZ6H-HRfk-49" value="" style="edgeStyle=orthogonalEdgeStyle;rounded=0;orthogonalLoop=1;jettySize=auto;html=1;" parent="gQxRfkXDCn6sZibHlR3a-1" source="9dr7ffE2T50aZ6H-HRfk-46" target="9dr7ffE2T50aZ6H-HRfk-48" edge="1">
          <mxGeometry relative="1" as="geometry" />
        </mxCell>
        <mxCell id="9dr7ffE2T50aZ6H-HRfk-46" value="PRINT(&quot;The rebate will automatically be deducted IN your transactions&quot;)" style="rounded=1;whiteSpace=wrap;html=1;" parent="gQxRfkXDCn6sZibHlR3a-1" vertex="1">
          <mxGeometry x="950" y="400" width="230" height="40" as="geometry" />
        </mxCell>
        <mxCell id="9dr7ffE2T50aZ6H-HRfk-51" value="" style="edgeStyle=orthogonalEdgeStyle;rounded=0;orthogonalLoop=1;jettySize=auto;html=1;" parent="gQxRfkXDCn6sZibHlR3a-1" source="9dr7ffE2T50aZ6H-HRfk-48" target="9dr7ffE2T50aZ6H-HRfk-50" edge="1">
          <mxGeometry relative="1" as="geometry" />
        </mxCell>
        <mxCell id="9dr7ffE2T50aZ6H-HRfk-48" value="PRINT(&quot;If you cancel the current payment, no points will be deducted&quot;)" style="rounded=1;whiteSpace=wrap;html=1;" parent="gQxRfkXDCn6sZibHlR3a-1" vertex="1">
          <mxGeometry x="950" y="480" width="230" height="40" as="geometry" />
        </mxCell>
        <mxCell id="-F4knB46RpZmFdb4Z-ve-0" value="" style="edgeStyle=orthogonalEdgeStyle;rounded=0;orthogonalLoop=1;jettySize=auto;html=1;" edge="1" parent="gQxRfkXDCn6sZibHlR3a-1" source="9dr7ffE2T50aZ6H-HRfk-50" target="9dr7ffE2T50aZ6H-HRfk-60">
          <mxGeometry relative="1" as="geometry" />
        </mxCell>
        <mxCell id="9dr7ffE2T50aZ6H-HRfk-50" value="PRINT(&quot;&quot;)" style="rounded=1;whiteSpace=wrap;html=1;" parent="gQxRfkXDCn6sZibHlR3a-1" vertex="1">
          <mxGeometry x="950" y="560" width="230" height="40" as="geometry" />
        </mxCell>
        <mxCell id="-F4knB46RpZmFdb4Z-ve-5" style="edgeStyle=orthogonalEdgeStyle;rounded=0;orthogonalLoop=1;jettySize=auto;html=1;entryX=0.5;entryY=0;entryDx=0;entryDy=0;" edge="1" parent="gQxRfkXDCn6sZibHlR3a-1" source="9dr7ffE2T50aZ6H-HRfk-60" target="-F4knB46RpZmFdb4Z-ve-4">
          <mxGeometry relative="1" as="geometry" />
        </mxCell>
        <mxCell id="-F4knB46RpZmFdb4Z-ve-9" style="edgeStyle=orthogonalEdgeStyle;rounded=0;orthogonalLoop=1;jettySize=auto;html=1;entryX=0;entryY=0.5;entryDx=0;entryDy=0;" edge="1" parent="gQxRfkXDCn6sZibHlR3a-1" source="9dr7ffE2T50aZ6H-HRfk-60" target="-F4knB46RpZmFdb4Z-ve-8">
          <mxGeometry relative="1" as="geometry" />
        </mxCell>
        <mxCell id="9dr7ffE2T50aZ6H-HRfk-60" value="ValueError" style="rhombus;whiteSpace=wrap;html=1;" parent="gQxRfkXDCn6sZibHlR3a-1" vertex="1">
          <mxGeometry x="1009.5" y="650" width="110" height="100" as="geometry" />
        </mxCell>
        <mxCell id="9dr7ffE2T50aZ6H-HRfk-65" value="" style="edgeStyle=orthogonalEdgeStyle;rounded=0;orthogonalLoop=1;jettySize=auto;html=1;" parent="gQxRfkXDCn6sZibHlR3a-1" source="9dr7ffE2T50aZ6H-HRfk-62" target="9dr7ffE2T50aZ6H-HRfk-64" edge="1">
          <mxGeometry relative="1" as="geometry" />
        </mxCell>
        <mxCell id="9dr7ffE2T50aZ6H-HRfk-62" value="PRINT(&quot;Error input&quot;)" style="rounded=1;whiteSpace=wrap;html=1;" parent="gQxRfkXDCn6sZibHlR3a-1" vertex="1">
          <mxGeometry x="1207" y="770" width="230" height="40" as="geometry" />
        </mxCell>
        <mxCell id="9dr7ffE2T50aZ6H-HRfk-66" style="edgeStyle=orthogonalEdgeStyle;rounded=0;orthogonalLoop=1;jettySize=auto;html=1;exitX=1;exitY=0.5;exitDx=0;exitDy=0;" parent="gQxRfkXDCn6sZibHlR3a-1" source="9dr7ffE2T50aZ6H-HRfk-64" edge="1">
          <mxGeometry relative="1" as="geometry">
            <mxPoint x="880" y="260" as="targetPoint" />
            <Array as="points">
              <mxPoint x="1480" y="860" />
              <mxPoint x="1480" y="190" />
              <mxPoint x="880" y="190" />
            </Array>
          </mxGeometry>
        </mxCell>
        <mxCell id="9dr7ffE2T50aZ6H-HRfk-64" value="CONTINUE" style="rounded=1;whiteSpace=wrap;html=1;" parent="gQxRfkXDCn6sZibHlR3a-1" vertex="1">
          <mxGeometry x="1207" y="840" width="230" height="40" as="geometry" />
        </mxCell>
        <mxCell id="9dr7ffE2T50aZ6H-HRfk-67" value="True" style="text;html=1;align=center;verticalAlign=middle;resizable=0;points=[];autosize=1;strokeColor=none;" parent="gQxRfkXDCn6sZibHlR3a-1" vertex="1">
          <mxGeometry x="1119.5" y="680" width="40" height="20" as="geometry" />
        </mxCell>
        <mxCell id="9dr7ffE2T50aZ6H-HRfk-68" value="False" style="text;html=1;align=center;verticalAlign=middle;resizable=0;points=[];autosize=1;strokeColor=none;" parent="gQxRfkXDCn6sZibHlR3a-1" vertex="1">
          <mxGeometry x="1079.5" y="740" width="40" height="20" as="geometry" />
        </mxCell>
        <mxCell id="9dr7ffE2T50aZ6H-HRfk-72" value="" style="edgeStyle=orthogonalEdgeStyle;rounded=0;orthogonalLoop=1;jettySize=auto;html=1;" parent="gQxRfkXDCn6sZibHlR3a-1" source="9dr7ffE2T50aZ6H-HRfk-69" target="9dr7ffE2T50aZ6H-HRfk-71" edge="1">
          <mxGeometry relative="1" as="geometry" />
        </mxCell>
        <mxCell id="-F4knB46RpZmFdb4Z-ve-17" style="edgeStyle=orthogonalEdgeStyle;rounded=0;orthogonalLoop=1;jettySize=auto;html=1;entryX=0;entryY=0.5;entryDx=0;entryDy=0;" edge="1" parent="gQxRfkXDCn6sZibHlR3a-1" source="9dr7ffE2T50aZ6H-HRfk-69" target="-F4knB46RpZmFdb4Z-ve-15">
          <mxGeometry relative="1" as="geometry" />
        </mxCell>
        <mxCell id="9dr7ffE2T50aZ6H-HRfk-69" value="int(user_data[-1])/100) &gt;= count" style="rhombus;whiteSpace=wrap;html=1;" parent="gQxRfkXDCn6sZibHlR3a-1" vertex="1">
          <mxGeometry x="965" y="990" width="200" height="110" as="geometry" />
        </mxCell>
        <mxCell id="9dr7ffE2T50aZ6H-HRfk-75" value="" style="edgeStyle=orthogonalEdgeStyle;rounded=0;orthogonalLoop=1;jettySize=auto;html=1;" parent="gQxRfkXDCn6sZibHlR3a-1" source="9dr7ffE2T50aZ6H-HRfk-71" target="9dr7ffE2T50aZ6H-HRfk-74" edge="1">
          <mxGeometry relative="1" as="geometry" />
        </mxCell>
        <mxCell id="9dr7ffE2T50aZ6H-HRfk-71" value="PRINT(&quot;Eligible. Do you want to exchange &quot; + str(count) + &quot; RM5 voucher ?&quot;)" style="rounded=1;whiteSpace=wrap;html=1;" parent="gQxRfkXDCn6sZibHlR3a-1" vertex="1">
          <mxGeometry x="950" y="1150" width="230" height="40" as="geometry" />
        </mxCell>
        <mxCell id="9dr7ffE2T50aZ6H-HRfk-79" value="" style="edgeStyle=orthogonalEdgeStyle;rounded=0;orthogonalLoop=1;jettySize=auto;html=1;" parent="gQxRfkXDCn6sZibHlR3a-1" source="9dr7ffE2T50aZ6H-HRfk-74" target="9dr7ffE2T50aZ6H-HRfk-78" edge="1">
          <mxGeometry relative="1" as="geometry" />
        </mxCell>
        <mxCell id="9dr7ffE2T50aZ6H-HRfk-74" value="DECLARE menu = [&quot;Confirm&quot;, &quot;Return&quot;]" style="rounded=1;whiteSpace=wrap;html=1;" parent="gQxRfkXDCn6sZibHlR3a-1" vertex="1">
          <mxGeometry x="950" y="1230" width="230" height="40" as="geometry" />
        </mxCell>
        <mxCell id="9dr7ffE2T50aZ6H-HRfk-81" value="" style="edgeStyle=orthogonalEdgeStyle;rounded=0;orthogonalLoop=1;jettySize=auto;html=1;" parent="gQxRfkXDCn6sZibHlR3a-1" source="9dr7ffE2T50aZ6H-HRfk-78" target="9dr7ffE2T50aZ6H-HRfk-80" edge="1">
          <mxGeometry relative="1" as="geometry" />
        </mxCell>
        <mxCell id="9dr7ffE2T50aZ6H-HRfk-78" value="default.general_menu(menu)" style="shape=process;whiteSpace=wrap;html=1;backgroundOutline=1;" parent="gQxRfkXDCn6sZibHlR3a-1" vertex="1">
          <mxGeometry x="945" y="1320" width="240" height="50" as="geometry" />
        </mxCell>
        <mxCell id="9dr7ffE2T50aZ6H-HRfk-84" value="" style="edgeStyle=orthogonalEdgeStyle;rounded=0;orthogonalLoop=1;jettySize=auto;html=1;" parent="gQxRfkXDCn6sZibHlR3a-1" source="9dr7ffE2T50aZ6H-HRfk-80" target="9dr7ffE2T50aZ6H-HRfk-83" edge="1">
          <mxGeometry relative="1" as="geometry" />
        </mxCell>
        <mxCell id="9dr7ffE2T50aZ6H-HRfk-80" value="PRINT(&quot;Please Select: &quot;)" style="rounded=1;whiteSpace=wrap;html=1;" parent="gQxRfkXDCn6sZibHlR3a-1" vertex="1">
          <mxGeometry x="950" y="1420" width="230" height="40" as="geometry" />
        </mxCell>
        <mxCell id="9dr7ffE2T50aZ6H-HRfk-86" value="" style="edgeStyle=orthogonalEdgeStyle;rounded=0;orthogonalLoop=1;jettySize=auto;html=1;" parent="gQxRfkXDCn6sZibHlR3a-1" source="9dr7ffE2T50aZ6H-HRfk-83" target="9dr7ffE2T50aZ6H-HRfk-85" edge="1">
          <mxGeometry relative="1" as="geometry" />
        </mxCell>
        <mxCell id="9dr7ffE2T50aZ6H-HRfk-83" value="READ choice" style="shape=parallelogram;perimeter=parallelogramPerimeter;whiteSpace=wrap;html=1;fixedSize=1;" parent="gQxRfkXDCn6sZibHlR3a-1" vertex="1">
          <mxGeometry x="950" y="1510" width="229" height="50" as="geometry" />
        </mxCell>
        <mxCell id="9dr7ffE2T50aZ6H-HRfk-87" style="edgeStyle=orthogonalEdgeStyle;rounded=0;orthogonalLoop=1;jettySize=auto;html=1;" parent="gQxRfkXDCn6sZibHlR3a-1" source="9dr7ffE2T50aZ6H-HRfk-85" edge="1">
          <mxGeometry relative="1" as="geometry">
            <mxPoint x="1065" y="1210" as="targetPoint" />
            <Array as="points">
              <mxPoint x="890" y="1670" />
              <mxPoint x="890" y="1210" />
            </Array>
          </mxGeometry>
        </mxCell>
        <mxCell id="9dr7ffE2T50aZ6H-HRfk-104" value="" style="edgeStyle=orthogonalEdgeStyle;rounded=0;orthogonalLoop=1;jettySize=auto;html=1;" parent="gQxRfkXDCn6sZibHlR3a-1" source="9dr7ffE2T50aZ6H-HRfk-85" target="9dr7ffE2T50aZ6H-HRfk-103" edge="1">
          <mxGeometry relative="1" as="geometry" />
        </mxCell>
        <mxCell id="9dr7ffE2T50aZ6H-HRfk-85" value="choice == &#39;1&#39; OR choice == &#39;2&#39;" style="rhombus;whiteSpace=wrap;html=1;" parent="gQxRfkXDCn6sZibHlR3a-1" vertex="1">
          <mxGeometry x="960" y="1610" width="210" height="120" as="geometry" />
        </mxCell>
        <mxCell id="9dr7ffE2T50aZ6H-HRfk-88" value="True" style="text;html=1;align=center;verticalAlign=middle;resizable=0;points=[];autosize=1;strokeColor=none;" parent="gQxRfkXDCn6sZibHlR3a-1" vertex="1">
          <mxGeometry x="1070" y="1730" width="40" height="20" as="geometry" />
        </mxCell>
        <mxCell id="9dr7ffE2T50aZ6H-HRfk-89" value="False" style="text;html=1;align=center;verticalAlign=middle;resizable=0;points=[];autosize=1;strokeColor=none;" parent="gQxRfkXDCn6sZibHlR3a-1" vertex="1">
          <mxGeometry x="920" y="1650" width="40" height="20" as="geometry" />
        </mxCell>
        <mxCell id="9dr7ffE2T50aZ6H-HRfk-90" value="True" style="text;html=1;align=center;verticalAlign=middle;resizable=0;points=[];autosize=1;strokeColor=none;" parent="gQxRfkXDCn6sZibHlR3a-1" vertex="1">
          <mxGeometry x="690" y="1680" width="40" height="20" as="geometry" />
        </mxCell>
        <mxCell id="9dr7ffE2T50aZ6H-HRfk-97" value="3" style="ellipse;whiteSpace=wrap;html=1;aspect=fixed;" parent="gQxRfkXDCn6sZibHlR3a-1" vertex="1">
          <mxGeometry x="575" y="1900" width="40" height="40" as="geometry" />
        </mxCell>
        <mxCell id="9dr7ffE2T50aZ6H-HRfk-99" value="False" style="text;html=1;align=center;verticalAlign=middle;resizable=0;points=[];autosize=1;strokeColor=none;" parent="gQxRfkXDCn6sZibHlR3a-1" vertex="1">
          <mxGeometry x="600" y="1760" width="40" height="20" as="geometry" />
        </mxCell>
        <mxCell id="9dr7ffE2T50aZ6H-HRfk-106" style="edgeStyle=orthogonalEdgeStyle;rounded=0;orthogonalLoop=1;jettySize=auto;html=1;entryX=0;entryY=0.5;entryDx=0;entryDy=0;" parent="gQxRfkXDCn6sZibHlR3a-1" source="9dr7ffE2T50aZ6H-HRfk-103" target="9dr7ffE2T50aZ6H-HRfk-105" edge="1">
          <mxGeometry relative="1" as="geometry" />
        </mxCell>
        <mxCell id="9dr7ffE2T50aZ6H-HRfk-103" value="BREAK" style="rounded=1;whiteSpace=wrap;html=1;" parent="gQxRfkXDCn6sZibHlR3a-1" vertex="1">
          <mxGeometry x="992" y="1800" width="145" height="40" as="geometry" />
        </mxCell>
        <mxCell id="9dr7ffE2T50aZ6H-HRfk-108" value="" style="edgeStyle=orthogonalEdgeStyle;rounded=0;orthogonalLoop=1;jettySize=auto;html=1;" parent="gQxRfkXDCn6sZibHlR3a-1" source="9dr7ffE2T50aZ6H-HRfk-105" target="9dr7ffE2T50aZ6H-HRfk-107" edge="1">
          <mxGeometry relative="1" as="geometry" />
        </mxCell>
        <mxCell id="9dr7ffE2T50aZ6H-HRfk-119" style="edgeStyle=orthogonalEdgeStyle;rounded=0;orthogonalLoop=1;jettySize=auto;html=1;entryX=0;entryY=0.5;entryDx=0;entryDy=0;" parent="gQxRfkXDCn6sZibHlR3a-1" source="9dr7ffE2T50aZ6H-HRfk-105" target="9dr7ffE2T50aZ6H-HRfk-118" edge="1">
          <mxGeometry relative="1" as="geometry" />
        </mxCell>
        <mxCell id="9dr7ffE2T50aZ6H-HRfk-105" value="choice == &#39;1&#39;" style="rhombus;whiteSpace=wrap;html=1;" parent="gQxRfkXDCn6sZibHlR3a-1" vertex="1">
          <mxGeometry x="1310" y="1110" width="110" height="100" as="geometry" />
        </mxCell>
        <mxCell id="9dr7ffE2T50aZ6H-HRfk-110" value="" style="edgeStyle=orthogonalEdgeStyle;rounded=0;orthogonalLoop=1;jettySize=auto;html=1;" parent="gQxRfkXDCn6sZibHlR3a-1" source="9dr7ffE2T50aZ6H-HRfk-107" target="9dr7ffE2T50aZ6H-HRfk-109" edge="1">
          <mxGeometry relative="1" as="geometry" />
        </mxCell>
        <mxCell id="9dr7ffE2T50aZ6H-HRfk-107" value="PRINT(&quot;You have successfully exchange &quot; + str(count) + &quot; RM5 vouchers&quot;)" style="rounded=1;whiteSpace=wrap;html=1;" parent="gQxRfkXDCn6sZibHlR3a-1" vertex="1">
          <mxGeometry x="1250" y="1250" width="230" height="40" as="geometry" />
        </mxCell>
        <mxCell id="9dr7ffE2T50aZ6H-HRfk-112" value="" style="edgeStyle=orthogonalEdgeStyle;rounded=0;orthogonalLoop=1;jettySize=auto;html=1;" parent="gQxRfkXDCn6sZibHlR3a-1" source="9dr7ffE2T50aZ6H-HRfk-109" target="9dr7ffE2T50aZ6H-HRfk-111" edge="1">
          <mxGeometry relative="1" as="geometry" />
        </mxCell>
        <mxCell id="9dr7ffE2T50aZ6H-HRfk-109" value="voucher = count" style="rounded=1;whiteSpace=wrap;html=1;" parent="gQxRfkXDCn6sZibHlR3a-1" vertex="1">
          <mxGeometry x="1250" y="1330" width="230" height="40" as="geometry" />
        </mxCell>
        <mxCell id="9dr7ffE2T50aZ6H-HRfk-114" value="" style="edgeStyle=orthogonalEdgeStyle;rounded=0;orthogonalLoop=1;jettySize=auto;html=1;" parent="gQxRfkXDCn6sZibHlR3a-1" source="9dr7ffE2T50aZ6H-HRfk-111" target="9dr7ffE2T50aZ6H-HRfk-113" edge="1">
          <mxGeometry relative="1" as="geometry" />
        </mxCell>
        <mxCell id="9dr7ffE2T50aZ6H-HRfk-111" value="temp = total_price" style="rounded=1;whiteSpace=wrap;html=1;" parent="gQxRfkXDCn6sZibHlR3a-1" vertex="1">
          <mxGeometry x="1250" y="1410" width="230" height="40" as="geometry" />
        </mxCell>
        <mxCell id="9dr7ffE2T50aZ6H-HRfk-116" value="" style="edgeStyle=orthogonalEdgeStyle;rounded=0;orthogonalLoop=1;jettySize=auto;html=1;" parent="gQxRfkXDCn6sZibHlR3a-1" source="9dr7ffE2T50aZ6H-HRfk-113" target="9dr7ffE2T50aZ6H-HRfk-115" edge="1">
          <mxGeometry relative="1" as="geometry" />
        </mxCell>
        <mxCell id="9dr7ffE2T50aZ6H-HRfk-113" value="total_price = total_price - count * 5" style="rounded=1;whiteSpace=wrap;html=1;" parent="gQxRfkXDCn6sZibHlR3a-1" vertex="1">
          <mxGeometry x="1250" y="1490" width="230" height="40" as="geometry" />
        </mxCell>
        <mxCell id="9dr7ffE2T50aZ6H-HRfk-125" value="" style="edgeStyle=orthogonalEdgeStyle;rounded=0;orthogonalLoop=1;jettySize=auto;html=1;" parent="gQxRfkXDCn6sZibHlR3a-1" source="9dr7ffE2T50aZ6H-HRfk-115" target="9dr7ffE2T50aZ6H-HRfk-124" edge="1">
          <mxGeometry relative="1" as="geometry" />
        </mxCell>
        <mxCell id="9dr7ffE2T50aZ6H-HRfk-115" value="PRINT(&quot;RM&quot; + str(temp) + &quot; - &quot; + &quot;RM&quot; + str(count * 5) + &quot; = RM&quot; + str(total_price))" style="rounded=1;whiteSpace=wrap;html=1;" parent="gQxRfkXDCn6sZibHlR3a-1" vertex="1">
          <mxGeometry x="1250" y="1570" width="230" height="40" as="geometry" />
        </mxCell>
        <mxCell id="9dr7ffE2T50aZ6H-HRfk-117" value="True" style="text;html=1;align=center;verticalAlign=middle;resizable=0;points=[];autosize=1;strokeColor=none;" parent="gQxRfkXDCn6sZibHlR3a-1" vertex="1">
          <mxGeometry x="1370" y="1210" width="40" height="20" as="geometry" />
        </mxCell>
        <mxCell id="9dr7ffE2T50aZ6H-HRfk-121" value="" style="edgeStyle=orthogonalEdgeStyle;rounded=0;orthogonalLoop=1;jettySize=auto;html=1;" parent="gQxRfkXDCn6sZibHlR3a-1" source="9dr7ffE2T50aZ6H-HRfk-118" target="9dr7ffE2T50aZ6H-HRfk-120" edge="1">
          <mxGeometry relative="1" as="geometry" />
        </mxCell>
        <mxCell id="9dr7ffE2T50aZ6H-HRfk-118" value="choice == &#39;2&#39;" style="rhombus;whiteSpace=wrap;html=1;" parent="gQxRfkXDCn6sZibHlR3a-1" vertex="1">
          <mxGeometry x="1580" y="1110" width="110" height="100" as="geometry" />
        </mxCell>
        <mxCell id="9dr7ffE2T50aZ6H-HRfk-123" value="" style="edgeStyle=orthogonalEdgeStyle;rounded=0;orthogonalLoop=1;jettySize=auto;html=1;" parent="gQxRfkXDCn6sZibHlR3a-1" source="9dr7ffE2T50aZ6H-HRfk-120" target="9dr7ffE2T50aZ6H-HRfk-122" edge="1">
          <mxGeometry relative="1" as="geometry" />
        </mxCell>
        <mxCell id="9dr7ffE2T50aZ6H-HRfk-120" value="PRINT(&quot;You have successfully exchange &quot; + str(count) + &quot; RM5 vouchers&quot;)" style="rounded=1;whiteSpace=wrap;html=1;" parent="gQxRfkXDCn6sZibHlR3a-1" vertex="1">
          <mxGeometry x="1520" y="1250" width="230" height="40" as="geometry" />
        </mxCell>
        <mxCell id="9dr7ffE2T50aZ6H-HRfk-126" style="edgeStyle=orthogonalEdgeStyle;rounded=0;orthogonalLoop=1;jettySize=auto;html=1;entryX=1;entryY=0.5;entryDx=0;entryDy=0;" parent="gQxRfkXDCn6sZibHlR3a-1" source="9dr7ffE2T50aZ6H-HRfk-122" target="9dr7ffE2T50aZ6H-HRfk-124" edge="1">
          <mxGeometry relative="1" as="geometry">
            <Array as="points">
              <mxPoint x="1635" y="1700" />
            </Array>
          </mxGeometry>
        </mxCell>
        <mxCell id="9dr7ffE2T50aZ6H-HRfk-122" value="PRINT(&quot;Exchange has been cancelled.&quot;)" style="rounded=1;whiteSpace=wrap;html=1;" parent="gQxRfkXDCn6sZibHlR3a-1" vertex="1">
          <mxGeometry x="1520" y="1325" width="230" height="40" as="geometry" />
        </mxCell>
        <mxCell id="9dr7ffE2T50aZ6H-HRfk-130" style="edgeStyle=orthogonalEdgeStyle;rounded=0;orthogonalLoop=1;jettySize=auto;html=1;entryX=1;entryY=0.5;entryDx=0;entryDy=0;" parent="gQxRfkXDCn6sZibHlR3a-1" source="9dr7ffE2T50aZ6H-HRfk-124" target="9dr7ffE2T50aZ6H-HRfk-97" edge="1">
          <mxGeometry relative="1" as="geometry">
            <Array as="points">
              <mxPoint x="1370" y="1920" />
            </Array>
          </mxGeometry>
        </mxCell>
        <mxCell id="9dr7ffE2T50aZ6H-HRfk-124" value="BREAK" style="rounded=1;whiteSpace=wrap;html=1;" parent="gQxRfkXDCn6sZibHlR3a-1" vertex="1">
          <mxGeometry x="1292" y="1680" width="145" height="40" as="geometry" />
        </mxCell>
        <mxCell id="9dr7ffE2T50aZ6H-HRfk-127" value="True" style="text;html=1;align=center;verticalAlign=middle;resizable=0;points=[];autosize=1;strokeColor=none;" parent="gQxRfkXDCn6sZibHlR3a-1" vertex="1">
          <mxGeometry x="1640" y="1210" width="40" height="20" as="geometry" />
        </mxCell>
        <mxCell id="9dr7ffE2T50aZ6H-HRfk-128" value="False" style="text;html=1;align=center;verticalAlign=middle;resizable=0;points=[];autosize=1;strokeColor=none;" parent="gQxRfkXDCn6sZibHlR3a-1" vertex="1">
          <mxGeometry x="1420" y="1140" width="40" height="20" as="geometry" />
        </mxCell>
        <mxCell id="-F4knB46RpZmFdb4Z-ve-13" style="edgeStyle=orthogonalEdgeStyle;rounded=0;orthogonalLoop=1;jettySize=auto;html=1;entryX=0.5;entryY=0;entryDx=0;entryDy=0;" edge="1" parent="gQxRfkXDCn6sZibHlR3a-1" source="-F4knB46RpZmFdb4Z-ve-2" target="-F4knB46RpZmFdb4Z-ve-11">
          <mxGeometry relative="1" as="geometry" />
        </mxCell>
        <mxCell id="-F4knB46RpZmFdb4Z-ve-2" value="PROMPT &quot;How many RM5 vouchers do you want to exchange? &quot;" style="rounded=1;whiteSpace=wrap;html=1;" vertex="1" parent="gQxRfkXDCn6sZibHlR3a-1">
          <mxGeometry x="950" y="850" width="230" height="40" as="geometry" />
        </mxCell>
        <mxCell id="-F4knB46RpZmFdb4Z-ve-6" style="edgeStyle=orthogonalEdgeStyle;rounded=0;orthogonalLoop=1;jettySize=auto;html=1;entryX=0.5;entryY=0;entryDx=0;entryDy=0;" edge="1" parent="gQxRfkXDCn6sZibHlR3a-1" source="-F4knB46RpZmFdb4Z-ve-4" target="-F4knB46RpZmFdb4Z-ve-2">
          <mxGeometry relative="1" as="geometry" />
        </mxCell>
        <mxCell id="-F4knB46RpZmFdb4Z-ve-4" value="TRY" style="rounded=1;whiteSpace=wrap;html=1;" vertex="1" parent="gQxRfkXDCn6sZibHlR3a-1">
          <mxGeometry x="950" y="770" width="230" height="40" as="geometry" />
        </mxCell>
        <mxCell id="-F4knB46RpZmFdb4Z-ve-14" style="edgeStyle=orthogonalEdgeStyle;rounded=0;orthogonalLoop=1;jettySize=auto;html=1;" edge="1" parent="gQxRfkXDCn6sZibHlR3a-1" source="-F4knB46RpZmFdb4Z-ve-8" target="9dr7ffE2T50aZ6H-HRfk-62">
          <mxGeometry relative="1" as="geometry" />
        </mxCell>
        <mxCell id="-F4knB46RpZmFdb4Z-ve-8" value="EXCEPT" style="rounded=1;whiteSpace=wrap;html=1;" vertex="1" parent="gQxRfkXDCn6sZibHlR3a-1">
          <mxGeometry x="1207" y="680" width="230" height="40" as="geometry" />
        </mxCell>
        <mxCell id="-F4knB46RpZmFdb4Z-ve-12" style="edgeStyle=orthogonalEdgeStyle;rounded=0;orthogonalLoop=1;jettySize=auto;html=1;entryX=0.5;entryY=0;entryDx=0;entryDy=0;" edge="1" parent="gQxRfkXDCn6sZibHlR3a-1" source="-F4knB46RpZmFdb4Z-ve-11" target="9dr7ffE2T50aZ6H-HRfk-69">
          <mxGeometry relative="1" as="geometry" />
        </mxCell>
        <mxCell id="-F4knB46RpZmFdb4Z-ve-11" value="GET count AS INTEGER" style="shape=parallelogram;perimeter=parallelogramPerimeter;whiteSpace=wrap;html=1;fixedSize=1;" vertex="1" parent="gQxRfkXDCn6sZibHlR3a-1">
          <mxGeometry x="951" y="920" width="229" height="50" as="geometry" />
        </mxCell>
        <mxCell id="-F4knB46RpZmFdb4Z-ve-18" style="edgeStyle=orthogonalEdgeStyle;rounded=0;orthogonalLoop=1;jettySize=auto;html=1;entryX=0;entryY=0.5;entryDx=0;entryDy=0;" edge="1" parent="gQxRfkXDCn6sZibHlR3a-1" source="-F4knB46RpZmFdb4Z-ve-15" target="-F4knB46RpZmFdb4Z-ve-16">
          <mxGeometry relative="1" as="geometry" />
        </mxCell>
        <mxCell id="-F4knB46RpZmFdb4Z-ve-15" value="PRINT(&quot;Your points are not enough to exchange&quot;)" style="rounded=1;whiteSpace=wrap;html=1;" vertex="1" parent="gQxRfkXDCn6sZibHlR3a-1">
          <mxGeometry x="1220" y="1025" width="145" height="40" as="geometry" />
        </mxCell>
        <mxCell id="-F4knB46RpZmFdb4Z-ve-19" style="edgeStyle=orthogonalEdgeStyle;rounded=0;orthogonalLoop=1;jettySize=auto;html=1;" edge="1" parent="gQxRfkXDCn6sZibHlR3a-1">
          <mxGeometry relative="1" as="geometry">
            <mxPoint x="1480.5" y="860" as="targetPoint" />
            <mxPoint x="1480.5" y="1025" as="sourcePoint" />
          </mxGeometry>
        </mxCell>
        <mxCell id="-F4knB46RpZmFdb4Z-ve-16" value="CONTINUE" style="rounded=1;whiteSpace=wrap;html=1;" vertex="1" parent="gQxRfkXDCn6sZibHlR3a-1">
          <mxGeometry x="1410" y="1025" width="145" height="40" as="geometry" />
        </mxCell>
        <mxCell id="-F4knB46RpZmFdb4Z-ve-20" value="False" style="text;html=1;align=center;verticalAlign=middle;resizable=0;points=[];autosize=1;strokeColor=none;" vertex="1" parent="gQxRfkXDCn6sZibHlR3a-1">
          <mxGeometry x="1165" y="1025" width="40" height="20" as="geometry" />
        </mxCell>
        <mxCell id="-F4knB46RpZmFdb4Z-ve-21" value="True" style="text;html=1;align=center;verticalAlign=middle;resizable=0;points=[];autosize=1;strokeColor=none;" vertex="1" parent="gQxRfkXDCn6sZibHlR3a-1">
          <mxGeometry x="1070" y="1100" width="40" height="20" as="geometry" />
        </mxCell>
      </root>
    </mxGraphModel>
  </diagram>
  <diagram id="1Ysap0JKvXM3NlDAiVD-" name="Page-4">
    <mxGraphModel dx="1521" dy="1064" grid="1" gridSize="10" guides="1" tooltips="1" connect="1" arrows="1" fold="1" page="1" pageScale="1" pageWidth="3300" pageHeight="4681" math="0" shadow="0">
      <root>
        <mxCell id="VIqyfxDn0A3Ios2BhNXK-0" />
        <mxCell id="VIqyfxDn0A3Ios2BhNXK-1" parent="VIqyfxDn0A3Ios2BhNXK-0" />
        <mxCell id="VIqyfxDn0A3Ios2BhNXK-4" value="" style="edgeStyle=orthogonalEdgeStyle;rounded=0;orthogonalLoop=1;jettySize=auto;html=1;" edge="1" parent="VIqyfxDn0A3Ios2BhNXK-1" source="VIqyfxDn0A3Ios2BhNXK-2" target="VIqyfxDn0A3Ios2BhNXK-3">
          <mxGeometry relative="1" as="geometry" />
        </mxCell>
        <mxCell id="VIqyfxDn0A3Ios2BhNXK-2" value="3" style="ellipse;whiteSpace=wrap;html=1;aspect=fixed;" vertex="1" parent="VIqyfxDn0A3Ios2BhNXK-1">
          <mxGeometry x="230" y="260" width="40" height="40" as="geometry" />
        </mxCell>
        <mxCell id="VIqyfxDn0A3Ios2BhNXK-22" style="edgeStyle=orthogonalEdgeStyle;rounded=0;orthogonalLoop=1;jettySize=auto;html=1;" edge="1" parent="VIqyfxDn0A3Ios2BhNXK-1" source="VIqyfxDn0A3Ios2BhNXK-3" target="VIqyfxDn0A3Ios2BhNXK-7">
          <mxGeometry relative="1" as="geometry" />
        </mxCell>
        <mxCell id="VIqyfxDn0A3Ios2BhNXK-3" value="APPEND from_date TO data" style="rounded=1;whiteSpace=wrap;html=1;" vertex="1" parent="VIqyfxDn0A3Ios2BhNXK-1">
          <mxGeometry x="135" y="370" width="230" height="40" as="geometry" />
        </mxCell>
        <mxCell id="VIqyfxDn0A3Ios2BhNXK-28" style="edgeStyle=orthogonalEdgeStyle;rounded=0;orthogonalLoop=1;jettySize=auto;html=1;entryX=0.5;entryY=0;entryDx=0;entryDy=0;" edge="1" parent="VIqyfxDn0A3Ios2BhNXK-1" source="VIqyfxDn0A3Ios2BhNXK-7" target="VIqyfxDn0A3Ios2BhNXK-9">
          <mxGeometry relative="1" as="geometry" />
        </mxCell>
        <mxCell id="VIqyfxDn0A3Ios2BhNXK-7" value="APPEND from_time TO data" style="rounded=1;whiteSpace=wrap;html=1;" vertex="1" parent="VIqyfxDn0A3Ios2BhNXK-1">
          <mxGeometry x="135" y="440" width="230" height="40" as="geometry" />
        </mxCell>
        <mxCell id="VIqyfxDn0A3Ios2BhNXK-29" style="edgeStyle=orthogonalEdgeStyle;rounded=0;orthogonalLoop=1;jettySize=auto;html=1;entryX=0.5;entryY=0;entryDx=0;entryDy=0;" edge="1" parent="VIqyfxDn0A3Ios2BhNXK-1" source="VIqyfxDn0A3Ios2BhNXK-9" target="VIqyfxDn0A3Ios2BhNXK-10">
          <mxGeometry relative="1" as="geometry" />
        </mxCell>
        <mxCell id="VIqyfxDn0A3Ios2BhNXK-9" value="APPEND to_date TO data" style="rounded=1;whiteSpace=wrap;html=1;" vertex="1" parent="VIqyfxDn0A3Ios2BhNXK-1">
          <mxGeometry x="135" y="510" width="230" height="40" as="geometry" />
        </mxCell>
        <mxCell id="VIqyfxDn0A3Ios2BhNXK-30" style="edgeStyle=orthogonalEdgeStyle;rounded=0;orthogonalLoop=1;jettySize=auto;html=1;entryX=0.5;entryY=0;entryDx=0;entryDy=0;" edge="1" parent="VIqyfxDn0A3Ios2BhNXK-1" source="VIqyfxDn0A3Ios2BhNXK-10" target="VIqyfxDn0A3Ios2BhNXK-11">
          <mxGeometry relative="1" as="geometry" />
        </mxCell>
        <mxCell id="VIqyfxDn0A3Ios2BhNXK-10" value="APPEND to_time TO data" style="rounded=1;whiteSpace=wrap;html=1;" vertex="1" parent="VIqyfxDn0A3Ios2BhNXK-1">
          <mxGeometry x="135" y="580" width="230" height="40" as="geometry" />
        </mxCell>
        <mxCell id="VIqyfxDn0A3Ios2BhNXK-31" style="edgeStyle=orthogonalEdgeStyle;rounded=0;orthogonalLoop=1;jettySize=auto;html=1;entryX=0.5;entryY=0;entryDx=0;entryDy=0;" edge="1" parent="VIqyfxDn0A3Ios2BhNXK-1" source="VIqyfxDn0A3Ios2BhNXK-11" target="VIqyfxDn0A3Ios2BhNXK-12">
          <mxGeometry relative="1" as="geometry" />
        </mxCell>
        <mxCell id="VIqyfxDn0A3Ios2BhNXK-11" value="APPEND now_date TO data" style="rounded=1;whiteSpace=wrap;html=1;" vertex="1" parent="VIqyfxDn0A3Ios2BhNXK-1">
          <mxGeometry x="135" y="650" width="230" height="40" as="geometry" />
        </mxCell>
        <mxCell id="VIqyfxDn0A3Ios2BhNXK-32" style="edgeStyle=orthogonalEdgeStyle;rounded=0;orthogonalLoop=1;jettySize=auto;html=1;entryX=0.5;entryY=0;entryDx=0;entryDy=0;" edge="1" parent="VIqyfxDn0A3Ios2BhNXK-1" source="VIqyfxDn0A3Ios2BhNXK-12" target="VIqyfxDn0A3Ios2BhNXK-13">
          <mxGeometry relative="1" as="geometry" />
        </mxCell>
        <mxCell id="VIqyfxDn0A3Ios2BhNXK-12" value="APPEND now_time TO data" style="rounded=1;whiteSpace=wrap;html=1;" vertex="1" parent="VIqyfxDn0A3Ios2BhNXK-1">
          <mxGeometry x="135" y="720" width="230" height="40" as="geometry" />
        </mxCell>
        <mxCell id="VIqyfxDn0A3Ios2BhNXK-33" style="edgeStyle=orthogonalEdgeStyle;rounded=0;orthogonalLoop=1;jettySize=auto;html=1;entryX=0.5;entryY=0;entryDx=0;entryDy=0;" edge="1" parent="VIqyfxDn0A3Ios2BhNXK-1" source="VIqyfxDn0A3Ios2BhNXK-13" target="VIqyfxDn0A3Ios2BhNXK-14">
          <mxGeometry relative="1" as="geometry" />
        </mxCell>
        <mxCell id="VIqyfxDn0A3Ios2BhNXK-13" value="APPEND str(total_hours) TO data" style="rounded=1;whiteSpace=wrap;html=1;" vertex="1" parent="VIqyfxDn0A3Ios2BhNXK-1">
          <mxGeometry x="135" y="790" width="230" height="40" as="geometry" />
        </mxCell>
        <mxCell id="VIqyfxDn0A3Ios2BhNXK-34" style="edgeStyle=orthogonalEdgeStyle;rounded=0;orthogonalLoop=1;jettySize=auto;html=1;entryX=0.5;entryY=0;entryDx=0;entryDy=0;" edge="1" parent="VIqyfxDn0A3Ios2BhNXK-1" source="VIqyfxDn0A3Ios2BhNXK-14" target="VIqyfxDn0A3Ios2BhNXK-15">
          <mxGeometry relative="1" as="geometry" />
        </mxCell>
        <mxCell id="VIqyfxDn0A3Ios2BhNXK-14" value="APPEND str(total_price) TO data" style="rounded=1;whiteSpace=wrap;html=1;" vertex="1" parent="VIqyfxDn0A3Ios2BhNXK-1">
          <mxGeometry x="135" y="860" width="230" height="40" as="geometry" />
        </mxCell>
        <mxCell id="VIqyfxDn0A3Ios2BhNXK-35" style="edgeStyle=orthogonalEdgeStyle;rounded=0;orthogonalLoop=1;jettySize=auto;html=1;entryX=0.5;entryY=0;entryDx=0;entryDy=0;" edge="1" parent="VIqyfxDn0A3Ios2BhNXK-1" source="VIqyfxDn0A3Ios2BhNXK-15" target="VIqyfxDn0A3Ios2BhNXK-16">
          <mxGeometry relative="1" as="geometry" />
        </mxCell>
        <mxCell id="VIqyfxDn0A3Ios2BhNXK-15" value="booking_id = int(data_transactions[-1][-4]) + 1" style="rounded=1;whiteSpace=wrap;html=1;" vertex="1" parent="VIqyfxDn0A3Ios2BhNXK-1">
          <mxGeometry x="123.25" y="930" width="255" height="40" as="geometry" />
        </mxCell>
        <mxCell id="VIqyfxDn0A3Ios2BhNXK-36" style="edgeStyle=orthogonalEdgeStyle;rounded=0;orthogonalLoop=1;jettySize=auto;html=1;entryX=0.5;entryY=0;entryDx=0;entryDy=0;" edge="1" parent="VIqyfxDn0A3Ios2BhNXK-1" source="VIqyfxDn0A3Ios2BhNXK-16" target="VIqyfxDn0A3Ios2BhNXK-17">
          <mxGeometry relative="1" as="geometry" />
        </mxCell>
        <mxCell id="VIqyfxDn0A3Ios2BhNXK-16" value="APPEND str(booking_id) TO data" style="rounded=1;whiteSpace=wrap;html=1;" vertex="1" parent="VIqyfxDn0A3Ios2BhNXK-1">
          <mxGeometry x="135" y="1000" width="230" height="40" as="geometry" />
        </mxCell>
        <mxCell id="VIqyfxDn0A3Ios2BhNXK-37" style="edgeStyle=orthogonalEdgeStyle;rounded=0;orthogonalLoop=1;jettySize=auto;html=1;entryX=0.5;entryY=0;entryDx=0;entryDy=0;" edge="1" parent="VIqyfxDn0A3Ios2BhNXK-1" source="VIqyfxDn0A3Ios2BhNXK-17" target="VIqyfxDn0A3Ios2BhNXK-18">
          <mxGeometry relative="1" as="geometry" />
        </mxCell>
        <mxCell id="VIqyfxDn0A3Ios2BhNXK-17" value="APPEND &quot;Rented&quot; TO data" style="rounded=1;whiteSpace=wrap;html=1;" vertex="1" parent="VIqyfxDn0A3Ios2BhNXK-1">
          <mxGeometry x="135" y="1070" width="230" height="40" as="geometry" />
        </mxCell>
        <mxCell id="VIqyfxDn0A3Ios2BhNXK-38" style="edgeStyle=orthogonalEdgeStyle;rounded=0;orthogonalLoop=1;jettySize=auto;html=1;entryX=0.5;entryY=0;entryDx=0;entryDy=0;" edge="1" parent="VIqyfxDn0A3Ios2BhNXK-1" source="VIqyfxDn0A3Ios2BhNXK-18" target="VIqyfxDn0A3Ios2BhNXK-20">
          <mxGeometry relative="1" as="geometry" />
        </mxCell>
        <mxCell id="VIqyfxDn0A3Ios2BhNXK-18" value="APPEND &quot;0&quot; TO data" style="rounded=1;whiteSpace=wrap;html=1;" vertex="1" parent="VIqyfxDn0A3Ios2BhNXK-1">
          <mxGeometry x="135" y="1140" width="230" height="40" as="geometry" />
        </mxCell>
        <mxCell id="VIqyfxDn0A3Ios2BhNXK-41" value="" style="edgeStyle=orthogonalEdgeStyle;rounded=0;orthogonalLoop=1;jettySize=auto;html=1;" edge="1" parent="VIqyfxDn0A3Ios2BhNXK-1" source="VIqyfxDn0A3Ios2BhNXK-19" target="VIqyfxDn0A3Ios2BhNXK-40">
          <mxGeometry relative="1" as="geometry" />
        </mxCell>
        <mxCell id="VIqyfxDn0A3Ios2BhNXK-19" value="choice = confirm_booking (data_transactions[0], data)" style="shape=process;whiteSpace=wrap;html=1;backgroundOutline=1;" vertex="1" parent="VIqyfxDn0A3Ios2BhNXK-1">
          <mxGeometry x="121.75" y="1280" width="256.5" height="60" as="geometry" />
        </mxCell>
        <mxCell id="VIqyfxDn0A3Ios2BhNXK-39" style="edgeStyle=orthogonalEdgeStyle;rounded=0;orthogonalLoop=1;jettySize=auto;html=1;entryX=0.5;entryY=0;entryDx=0;entryDy=0;" edge="1" parent="VIqyfxDn0A3Ios2BhNXK-1" source="VIqyfxDn0A3Ios2BhNXK-20" target="VIqyfxDn0A3Ios2BhNXK-19">
          <mxGeometry relative="1" as="geometry" />
        </mxCell>
        <mxCell id="VIqyfxDn0A3Ios2BhNXK-20" value="APPEND &quot;-&quot; TO data" style="rounded=1;whiteSpace=wrap;html=1;" vertex="1" parent="VIqyfxDn0A3Ios2BhNXK-1">
          <mxGeometry x="135" y="1210" width="230" height="40" as="geometry" />
        </mxCell>
        <mxCell id="VIqyfxDn0A3Ios2BhNXK-43" style="edgeStyle=orthogonalEdgeStyle;rounded=0;orthogonalLoop=1;jettySize=auto;html=1;entryX=0.5;entryY=0;entryDx=0;entryDy=0;" edge="1" parent="VIqyfxDn0A3Ios2BhNXK-1" source="VIqyfxDn0A3Ios2BhNXK-40" target="VIqyfxDn0A3Ios2BhNXK-42">
          <mxGeometry relative="1" as="geometry" />
        </mxCell>
        <mxCell id="VIqyfxDn0A3Ios2BhNXK-46" value="" style="edgeStyle=orthogonalEdgeStyle;rounded=0;orthogonalLoop=1;jettySize=auto;html=1;" edge="1" parent="VIqyfxDn0A3Ios2BhNXK-1" source="VIqyfxDn0A3Ios2BhNXK-40" target="VIqyfxDn0A3Ios2BhNXK-45">
          <mxGeometry relative="1" as="geometry" />
        </mxCell>
        <mxCell id="VIqyfxDn0A3Ios2BhNXK-40" value="choice == &#39;1&#39;" style="rhombus;whiteSpace=wrap;html=1;" vertex="1" parent="VIqyfxDn0A3Ios2BhNXK-1">
          <mxGeometry x="195" y="1400" width="110" height="100" as="geometry" />
        </mxCell>
        <mxCell id="VeKx6vhq6wD72CpW_7HG-0" value="" style="edgeStyle=orthogonalEdgeStyle;rounded=0;orthogonalLoop=1;jettySize=auto;html=1;" edge="1" parent="VIqyfxDn0A3Ios2BhNXK-1" source="VIqyfxDn0A3Ios2BhNXK-42" target="VIqyfxDn0A3Ios2BhNXK-50">
          <mxGeometry relative="1" as="geometry" />
        </mxCell>
        <mxCell id="VIqyfxDn0A3Ios2BhNXK-42" value="APPEND data TO data_transactions" style="rounded=1;whiteSpace=wrap;html=1;" vertex="1" parent="VIqyfxDn0A3Ios2BhNXK-1">
          <mxGeometry x="530" y="370" width="230" height="40" as="geometry" />
        </mxCell>
        <mxCell id="VIqyfxDn0A3Ios2BhNXK-44" value="True" style="text;html=1;align=center;verticalAlign=middle;resizable=0;points=[];autosize=1;strokeColor=none;" vertex="1" parent="VIqyfxDn0A3Ios2BhNXK-1">
          <mxGeometry x="305" y="1430" width="40" height="20" as="geometry" />
        </mxCell>
        <mxCell id="VIqyfxDn0A3Ios2BhNXK-49" value="" style="edgeStyle=orthogonalEdgeStyle;rounded=0;orthogonalLoop=1;jettySize=auto;html=1;" edge="1" parent="VIqyfxDn0A3Ios2BhNXK-1" source="VIqyfxDn0A3Ios2BhNXK-45" target="VIqyfxDn0A3Ios2BhNXK-48">
          <mxGeometry relative="1" as="geometry" />
        </mxCell>
        <mxCell id="VIqyfxDn0A3Ios2BhNXK-45" value="choice == &#39;2&#39;" style="rhombus;whiteSpace=wrap;html=1;" vertex="1" parent="VIqyfxDn0A3Ios2BhNXK-1">
          <mxGeometry x="195" y="1550" width="110" height="100" as="geometry" />
        </mxCell>
        <mxCell id="VIqyfxDn0A3Ios2BhNXK-47" value="False" style="text;html=1;align=center;verticalAlign=middle;resizable=0;points=[];autosize=1;strokeColor=none;" vertex="1" parent="VIqyfxDn0A3Ios2BhNXK-1">
          <mxGeometry x="260" y="1510" width="40" height="20" as="geometry" />
        </mxCell>
        <mxCell id="VIqyfxDn0A3Ios2BhNXK-48" value="RETURN" style="ellipse;whiteSpace=wrap;html=1;" vertex="1" parent="VIqyfxDn0A3Ios2BhNXK-1">
          <mxGeometry x="205" y="1680" width="90" height="80" as="geometry" />
        </mxCell>
        <mxCell id="VeKx6vhq6wD72CpW_7HG-2" value="" style="edgeStyle=orthogonalEdgeStyle;rounded=0;orthogonalLoop=1;jettySize=auto;html=1;" edge="1" parent="VIqyfxDn0A3Ios2BhNXK-1" source="VIqyfxDn0A3Ios2BhNXK-50" target="VeKx6vhq6wD72CpW_7HG-1">
          <mxGeometry relative="1" as="geometry" />
        </mxCell>
        <mxCell id="VeKx6vhq6wD72CpW_7HG-3" value="" style="edgeStyle=orthogonalEdgeStyle;rounded=0;orthogonalLoop=1;jettySize=auto;html=1;" edge="1" parent="VIqyfxDn0A3Ios2BhNXK-1" target="VeKx6vhq6wD72CpW_7HG-1">
          <mxGeometry relative="1" as="geometry">
            <mxPoint x="645" y="540" as="sourcePoint" />
          </mxGeometry>
        </mxCell>
        <mxCell id="VIqyfxDn0A3Ios2BhNXK-50" value="&lt;span&gt;WRITE&amp;nbsp;&lt;/span&gt;data_transactions&lt;span&gt;&amp;nbsp;INTO&amp;nbsp;&lt;/span&gt;./data/transactions.txt" style="shape=document;whiteSpace=wrap;html=1;boundedLbl=1;size=0.25;" vertex="1" parent="VIqyfxDn0A3Ios2BhNXK-1">
          <mxGeometry x="490" y="470" width="310" height="80" as="geometry" />
        </mxCell>
        <mxCell id="VeKx6vhq6wD72CpW_7HG-5" value="" style="edgeStyle=orthogonalEdgeStyle;rounded=0;orthogonalLoop=1;jettySize=auto;html=1;" edge="1" parent="VIqyfxDn0A3Ios2BhNXK-1" source="VeKx6vhq6wD72CpW_7HG-1" target="VeKx6vhq6wD72CpW_7HG-4">
          <mxGeometry relative="1" as="geometry" />
        </mxCell>
        <mxCell id="VeKx6vhq6wD72CpW_7HG-1" value="ASSIGN STRING int(user_data[-1]) - int(voucher) * 100 TO user_data[-1]" style="rounded=1;whiteSpace=wrap;html=1;" vertex="1" parent="VIqyfxDn0A3Ios2BhNXK-1">
          <mxGeometry x="525" y="590" width="240" height="60" as="geometry" />
        </mxCell>
        <mxCell id="VeKx6vhq6wD72CpW_7HG-7" value="" style="edgeStyle=orthogonalEdgeStyle;rounded=0;orthogonalLoop=1;jettySize=auto;html=1;" edge="1" parent="VIqyfxDn0A3Ios2BhNXK-1" source="VeKx6vhq6wD72CpW_7HG-4" target="VeKx6vhq6wD72CpW_7HG-6">
          <mxGeometry relative="1" as="geometry" />
        </mxCell>
        <mxCell id="VeKx6vhq6wD72CpW_7HG-4" value="ASSIGN STRING float(user_data[-2]) + total_price TO user_data[-2]" style="rounded=1;whiteSpace=wrap;html=1;" vertex="1" parent="VIqyfxDn0A3Ios2BhNXK-1">
          <mxGeometry x="525" y="690" width="240" height="60" as="geometry" />
        </mxCell>
        <mxCell id="VeKx6vhq6wD72CpW_7HG-9" value="" style="edgeStyle=orthogonalEdgeStyle;rounded=0;orthogonalLoop=1;jettySize=auto;html=1;" edge="1" parent="VIqyfxDn0A3Ios2BhNXK-1" source="VeKx6vhq6wD72CpW_7HG-6" target="VeKx6vhq6wD72CpW_7HG-8">
          <mxGeometry relative="1" as="geometry" />
        </mxCell>
        <mxCell id="VeKx6vhq6wD72CpW_7HG-6" value="ASSIGN STRING int(total_price) + int(user_data[-1]) TO user_data[-1]" style="rounded=1;whiteSpace=wrap;html=1;" vertex="1" parent="VIqyfxDn0A3Ios2BhNXK-1">
          <mxGeometry x="525" y="790" width="240" height="60" as="geometry" />
        </mxCell>
        <mxCell id="VeKx6vhq6wD72CpW_7HG-11" value="" style="edgeStyle=orthogonalEdgeStyle;rounded=0;orthogonalLoop=1;jettySize=auto;html=1;" edge="1" parent="VIqyfxDn0A3Ios2BhNXK-1" source="VeKx6vhq6wD72CpW_7HG-8" target="VeKx6vhq6wD72CpW_7HG-10">
          <mxGeometry relative="1" as="geometry" />
        </mxCell>
        <mxCell id="VeKx6vhq6wD72CpW_7HG-8" value="int(float(user_data[-2])) &amp;gt; 2000 AND user_data[1] == &quot;Normal&quot;" style="rhombus;whiteSpace=wrap;html=1;" vertex="1" parent="VIqyfxDn0A3Ios2BhNXK-1">
          <mxGeometry x="440" y="930" width="410" height="90" as="geometry" />
        </mxCell>
        <mxCell id="VeKx6vhq6wD72CpW_7HG-15" value="" style="edgeStyle=orthogonalEdgeStyle;rounded=0;orthogonalLoop=1;jettySize=auto;html=1;" edge="1" parent="VIqyfxDn0A3Ios2BhNXK-1" source="VeKx6vhq6wD72CpW_7HG-10" target="VeKx6vhq6wD72CpW_7HG-12">
          <mxGeometry relative="1" as="geometry" />
        </mxCell>
        <mxCell id="VeKx6vhq6wD72CpW_7HG-10" value="default.print_title(&quot;You have become our VIP member&quot;)" style="shape=process;whiteSpace=wrap;html=1;backgroundOutline=1;" vertex="1" parent="VIqyfxDn0A3Ios2BhNXK-1">
          <mxGeometry x="525" y="1090" width="240" height="70" as="geometry" />
        </mxCell>
        <mxCell id="VeKx6vhq6wD72CpW_7HG-17" value="" style="edgeStyle=orthogonalEdgeStyle;rounded=0;orthogonalLoop=1;jettySize=auto;html=1;" edge="1" parent="VIqyfxDn0A3Ios2BhNXK-1" source="VeKx6vhq6wD72CpW_7HG-12" target="VeKx6vhq6wD72CpW_7HG-13">
          <mxGeometry relative="1" as="geometry" />
        </mxCell>
        <mxCell id="VeKx6vhq6wD72CpW_7HG-12" value="PRINT(&quot;Congratulations &quot; + str(user_data[2] +&quot;,\nYou will get 10% discount for every payment&quot;))" style="rounded=1;whiteSpace=wrap;html=1;" vertex="1" parent="VIqyfxDn0A3Ios2BhNXK-1">
          <mxGeometry x="525" y="1190" width="240" height="60" as="geometry" />
        </mxCell>
        <mxCell id="VeKx6vhq6wD72CpW_7HG-18" value="" style="edgeStyle=orthogonalEdgeStyle;rounded=0;orthogonalLoop=1;jettySize=auto;html=1;" edge="1" parent="VIqyfxDn0A3Ios2BhNXK-1" source="VeKx6vhq6wD72CpW_7HG-13" target="VeKx6vhq6wD72CpW_7HG-14">
          <mxGeometry relative="1" as="geometry" />
        </mxCell>
        <mxCell id="VeKx6vhq6wD72CpW_7HG-13" value="user_data[1] = &quot;VIP&quot;" style="rounded=1;whiteSpace=wrap;html=1;" vertex="1" parent="VIqyfxDn0A3Ios2BhNXK-1">
          <mxGeometry x="530" y="1290" width="230" height="40" as="geometry" />
        </mxCell>
        <mxCell id="VeKx6vhq6wD72CpW_7HG-20" value="" style="edgeStyle=orthogonalEdgeStyle;rounded=0;orthogonalLoop=1;jettySize=auto;html=1;" edge="1" parent="VIqyfxDn0A3Ios2BhNXK-1" source="VeKx6vhq6wD72CpW_7HG-14" target="VeKx6vhq6wD72CpW_7HG-19">
          <mxGeometry relative="1" as="geometry" />
        </mxCell>
        <mxCell id="VeKx6vhq6wD72CpW_7HG-14" value="PRINT(&quot;&quot;)" style="rounded=1;whiteSpace=wrap;html=1;" vertex="1" parent="VIqyfxDn0A3Ios2BhNXK-1">
          <mxGeometry x="530" y="1370" width="230" height="40" as="geometry" />
        </mxCell>
        <mxCell id="VeKx6vhq6wD72CpW_7HG-28" style="edgeStyle=orthogonalEdgeStyle;rounded=0;orthogonalLoop=1;jettySize=auto;html=1;entryX=0.5;entryY=0;entryDx=0;entryDy=0;" edge="1" parent="VIqyfxDn0A3Ios2BhNXK-1" source="VeKx6vhq6wD72CpW_7HG-19" target="VeKx6vhq6wD72CpW_7HG-23">
          <mxGeometry relative="1" as="geometry" />
        </mxCell>
        <mxCell id="VeKx6vhq6wD72CpW_7HG-19" value="k = 0" style="rounded=1;whiteSpace=wrap;html=1;" vertex="1" parent="VIqyfxDn0A3Ios2BhNXK-1">
          <mxGeometry x="530" y="1450" width="230" height="40" as="geometry" />
        </mxCell>
        <mxCell id="VeKx6vhq6wD72CpW_7HG-21" value="" style="group" vertex="1" connectable="0" parent="VIqyfxDn0A3Ios2BhNXK-1">
          <mxGeometry x="535" y="1560" width="230" height="90" as="geometry" />
        </mxCell>
        <mxCell id="VeKx6vhq6wD72CpW_7HG-22" value="" style="shape=hexagon;perimeter=hexagonPerimeter2;whiteSpace=wrap;html=1;fixedSize=1;" vertex="1" parent="VeKx6vhq6wD72CpW_7HG-21">
          <mxGeometry width="230.00000000000003" height="90" as="geometry" />
        </mxCell>
        <mxCell id="VeKx6vhq6wD72CpW_7HG-23" value="i" style="text;html=1;strokeColor=none;fillColor=none;align=center;verticalAlign=middle;whiteSpace=wrap;rounded=0;" vertex="1" parent="VeKx6vhq6wD72CpW_7HG-21">
          <mxGeometry x="87.61904761904762" width="43.80952380952381" height="20" as="geometry" />
        </mxCell>
        <mxCell id="VeKx6vhq6wD72CpW_7HG-24" value="0" style="text;html=1;strokeColor=none;fillColor=none;align=center;verticalAlign=middle;whiteSpace=wrap;rounded=0;" vertex="1" parent="VeKx6vhq6wD72CpW_7HG-21">
          <mxGeometry x="10.952380952380953" y="35" width="43.80952380952381" height="20" as="geometry" />
        </mxCell>
        <mxCell id="VeKx6vhq6wD72CpW_7HG-25" value="1" style="text;html=1;strokeColor=none;fillColor=none;align=center;verticalAlign=middle;whiteSpace=wrap;rounded=0;" vertex="1" parent="VeKx6vhq6wD72CpW_7HG-21">
          <mxGeometry x="87.61904761904762" y="70" width="43.80952380952381" height="20" as="geometry" />
        </mxCell>
        <mxCell id="VeKx6vhq6wD72CpW_7HG-26" value="&amp;lt;user_data" style="text;html=1;strokeColor=none;fillColor=none;align=center;verticalAlign=middle;whiteSpace=wrap;rounded=0;" vertex="1" parent="VeKx6vhq6wD72CpW_7HG-21">
          <mxGeometry x="164.2857142857143" y="35" width="43.80952380952381" height="20" as="geometry" />
        </mxCell>
        <mxCell id="VeKx6vhq6wD72CpW_7HG-33" value="" style="edgeStyle=orthogonalEdgeStyle;rounded=0;orthogonalLoop=1;jettySize=auto;html=1;" edge="1" parent="VIqyfxDn0A3Ios2BhNXK-1" source="VeKx6vhq6wD72CpW_7HG-30" target="VeKx6vhq6wD72CpW_7HG-32">
          <mxGeometry relative="1" as="geometry" />
        </mxCell>
        <mxCell id="VeKx6vhq6wD72CpW_7HG-42" style="edgeStyle=orthogonalEdgeStyle;rounded=0;orthogonalLoop=1;jettySize=auto;html=1;entryX=0.5;entryY=0;entryDx=0;entryDy=0;exitX=1;exitY=0.5;exitDx=0;exitDy=0;" edge="1" parent="VIqyfxDn0A3Ios2BhNXK-1" source="VeKx6vhq6wD72CpW_7HG-22" target="VeKx6vhq6wD72CpW_7HG-38">
          <mxGeometry relative="1" as="geometry">
            <Array as="points">
              <mxPoint x="880" y="1605" />
              <mxPoint x="880" y="350" />
              <mxPoint x="1083" y="350" />
            </Array>
          </mxGeometry>
        </mxCell>
        <mxCell id="VeKx6vhq6wD72CpW_7HG-30" value="ASSIGN STRING i TO user_data[k]" style="rounded=1;whiteSpace=wrap;html=1;" vertex="1" parent="VIqyfxDn0A3Ios2BhNXK-1">
          <mxGeometry x="535" y="1700" width="230" height="40" as="geometry" />
        </mxCell>
        <mxCell id="VeKx6vhq6wD72CpW_7HG-31" value="" style="edgeStyle=orthogonalEdgeStyle;rounded=0;orthogonalLoop=1;jettySize=auto;html=1;" edge="1" parent="VIqyfxDn0A3Ios2BhNXK-1" source="VeKx6vhq6wD72CpW_7HG-22" target="VeKx6vhq6wD72CpW_7HG-30">
          <mxGeometry relative="1" as="geometry" />
        </mxCell>
        <mxCell id="VeKx6vhq6wD72CpW_7HG-34" style="edgeStyle=orthogonalEdgeStyle;rounded=0;orthogonalLoop=1;jettySize=auto;html=1;entryX=0;entryY=0.5;entryDx=0;entryDy=0;" edge="1" parent="VIqyfxDn0A3Ios2BhNXK-1" source="VeKx6vhq6wD72CpW_7HG-32" target="VeKx6vhq6wD72CpW_7HG-22">
          <mxGeometry relative="1" as="geometry">
            <Array as="points">
              <mxPoint x="470" y="1605" />
            </Array>
          </mxGeometry>
        </mxCell>
        <mxCell id="VeKx6vhq6wD72CpW_7HG-32" value="i" style="ellipse;whiteSpace=wrap;html=1;aspect=fixed;" vertex="1" parent="VIqyfxDn0A3Ios2BhNXK-1">
          <mxGeometry x="450" y="1700" width="40" height="40" as="geometry" />
        </mxCell>
        <mxCell id="VeKx6vhq6wD72CpW_7HG-36" value="" style="group" vertex="1" connectable="0" parent="VIqyfxDn0A3Ios2BhNXK-1">
          <mxGeometry x="940" y="370" width="300" height="90" as="geometry" />
        </mxCell>
        <mxCell id="VeKx6vhq6wD72CpW_7HG-37" value="" style="shape=hexagon;perimeter=hexagonPerimeter2;whiteSpace=wrap;html=1;fixedSize=1;" vertex="1" parent="VeKx6vhq6wD72CpW_7HG-36">
          <mxGeometry width="300.00000000000006" height="90" as="geometry" />
        </mxCell>
        <mxCell id="VeKx6vhq6wD72CpW_7HG-38" value="i" style="text;html=1;strokeColor=none;fillColor=none;align=center;verticalAlign=middle;whiteSpace=wrap;rounded=0;" vertex="1" parent="VeKx6vhq6wD72CpW_7HG-36">
          <mxGeometry x="114.28571428571429" width="57.142857142857146" height="20" as="geometry" />
        </mxCell>
        <mxCell id="VeKx6vhq6wD72CpW_7HG-39" value="0" style="text;html=1;strokeColor=none;fillColor=none;align=center;verticalAlign=middle;whiteSpace=wrap;rounded=0;" vertex="1" parent="VeKx6vhq6wD72CpW_7HG-36">
          <mxGeometry x="14.285714285714286" y="35" width="57.142857142857146" height="20" as="geometry" />
        </mxCell>
        <mxCell id="VeKx6vhq6wD72CpW_7HG-40" value="1" style="text;html=1;strokeColor=none;fillColor=none;align=center;verticalAlign=middle;whiteSpace=wrap;rounded=0;" vertex="1" parent="VeKx6vhq6wD72CpW_7HG-36">
          <mxGeometry x="114.28571428571429" y="70" width="57.142857142857146" height="20" as="geometry" />
        </mxCell>
        <mxCell id="VeKx6vhq6wD72CpW_7HG-41" value="&amp;lt;range(len(data_clients))" style="text;html=1;strokeColor=none;fillColor=none;align=center;verticalAlign=middle;whiteSpace=wrap;rounded=0;" vertex="1" parent="VeKx6vhq6wD72CpW_7HG-36">
          <mxGeometry x="175.15527950310565" y="35" width="57.142857142857146" height="20" as="geometry" />
        </mxCell>
        <mxCell id="VeKx6vhq6wD72CpW_7HG-48" value="" style="edgeStyle=orthogonalEdgeStyle;rounded=0;orthogonalLoop=1;jettySize=auto;html=1;" edge="1" parent="VIqyfxDn0A3Ios2BhNXK-1" source="VeKx6vhq6wD72CpW_7HG-43" target="VeKx6vhq6wD72CpW_7HG-45">
          <mxGeometry relative="1" as="geometry" />
        </mxCell>
        <mxCell id="VeKx6vhq6wD72CpW_7HG-53" style="edgeStyle=orthogonalEdgeStyle;rounded=0;orthogonalLoop=1;jettySize=auto;html=1;entryX=0;entryY=0.5;entryDx=0;entryDy=0;" edge="1" parent="VIqyfxDn0A3Ios2BhNXK-1" source="VeKx6vhq6wD72CpW_7HG-43" target="VeKx6vhq6wD72CpW_7HG-52">
          <mxGeometry relative="1" as="geometry" />
        </mxCell>
        <mxCell id="VeKx6vhq6wD72CpW_7HG-43" value="user_data[0] == data_clients[i][0]" style="rhombus;whiteSpace=wrap;html=1;" vertex="1" parent="VIqyfxDn0A3Ios2BhNXK-1">
          <mxGeometry x="972.5" y="540" width="235" height="120" as="geometry" />
        </mxCell>
        <mxCell id="VeKx6vhq6wD72CpW_7HG-44" value="" style="edgeStyle=orthogonalEdgeStyle;rounded=0;orthogonalLoop=1;jettySize=auto;html=1;" edge="1" parent="VIqyfxDn0A3Ios2BhNXK-1" source="VeKx6vhq6wD72CpW_7HG-37" target="VeKx6vhq6wD72CpW_7HG-43">
          <mxGeometry relative="1" as="geometry" />
        </mxCell>
        <mxCell id="VeKx6vhq6wD72CpW_7HG-49" value="" style="edgeStyle=orthogonalEdgeStyle;rounded=0;orthogonalLoop=1;jettySize=auto;html=1;" edge="1" parent="VIqyfxDn0A3Ios2BhNXK-1" source="VeKx6vhq6wD72CpW_7HG-45" target="VeKx6vhq6wD72CpW_7HG-46">
          <mxGeometry relative="1" as="geometry" />
        </mxCell>
        <mxCell id="VeKx6vhq6wD72CpW_7HG-45" value="data_clients[i] = user_data" style="rounded=1;whiteSpace=wrap;html=1;" vertex="1" parent="VIqyfxDn0A3Ios2BhNXK-1">
          <mxGeometry x="970" y="710" width="240" height="60" as="geometry" />
        </mxCell>
        <mxCell id="VeKx6vhq6wD72CpW_7HG-58" style="edgeStyle=orthogonalEdgeStyle;rounded=0;orthogonalLoop=1;jettySize=auto;html=1;entryX=0.5;entryY=0;entryDx=0;entryDy=0;" edge="1" parent="VIqyfxDn0A3Ios2BhNXK-1" source="VeKx6vhq6wD72CpW_7HG-46" target="VeKx6vhq6wD72CpW_7HG-59">
          <mxGeometry relative="1" as="geometry">
            <mxPoint x="1090" y="980" as="targetPoint" />
          </mxGeometry>
        </mxCell>
        <mxCell id="VeKx6vhq6wD72CpW_7HG-46" value="BREAK" style="rounded=1;whiteSpace=wrap;html=1;" vertex="1" parent="VIqyfxDn0A3Ios2BhNXK-1">
          <mxGeometry x="970" y="820" width="240" height="60" as="geometry" />
        </mxCell>
        <mxCell id="VeKx6vhq6wD72CpW_7HG-50" value="True" style="text;html=1;align=center;verticalAlign=middle;resizable=0;points=[];autosize=1;strokeColor=none;" vertex="1" parent="VIqyfxDn0A3Ios2BhNXK-1">
          <mxGeometry x="1100" y="670" width="40" height="20" as="geometry" />
        </mxCell>
        <mxCell id="VeKx6vhq6wD72CpW_7HG-51" value="True" style="text;html=1;align=center;verticalAlign=middle;resizable=0;points=[];autosize=1;strokeColor=none;" vertex="1" parent="VIqyfxDn0A3Ios2BhNXK-1">
          <mxGeometry x="650" y="1020" width="40" height="20" as="geometry" />
        </mxCell>
        <mxCell id="VeKx6vhq6wD72CpW_7HG-55" style="edgeStyle=orthogonalEdgeStyle;rounded=0;orthogonalLoop=1;jettySize=auto;html=1;entryX=1;entryY=0.5;entryDx=0;entryDy=0;" edge="1" parent="VIqyfxDn0A3Ios2BhNXK-1" source="VeKx6vhq6wD72CpW_7HG-52" target="VeKx6vhq6wD72CpW_7HG-37">
          <mxGeometry relative="1" as="geometry">
            <Array as="points">
              <mxPoint x="1320" y="600" />
              <mxPoint x="1320" y="415" />
            </Array>
          </mxGeometry>
        </mxCell>
        <mxCell id="VeKx6vhq6wD72CpW_7HG-52" value="i" style="ellipse;whiteSpace=wrap;html=1;aspect=fixed;" vertex="1" parent="VIqyfxDn0A3Ios2BhNXK-1">
          <mxGeometry x="1270" y="580" width="40" height="40" as="geometry" />
        </mxCell>
        <mxCell id="VeKx6vhq6wD72CpW_7HG-54" value="False" style="text;html=1;align=center;verticalAlign=middle;resizable=0;points=[];autosize=1;strokeColor=none;" vertex="1" parent="VIqyfxDn0A3Ios2BhNXK-1">
          <mxGeometry x="1208" y="580" width="40" height="20" as="geometry" />
        </mxCell>
        <mxCell id="VeKx6vhq6wD72CpW_7HG-57" style="edgeStyle=orthogonalEdgeStyle;rounded=0;orthogonalLoop=1;jettySize=auto;html=1;" edge="1" parent="VIqyfxDn0A3Ios2BhNXK-1" source="VeKx6vhq6wD72CpW_7HG-37">
          <mxGeometry relative="1" as="geometry">
            <mxPoint x="1090" y="940" as="targetPoint" />
            <Array as="points">
              <mxPoint x="920" y="415" />
              <mxPoint x="920" y="940" />
            </Array>
          </mxGeometry>
        </mxCell>
        <mxCell id="VeKx6vhq6wD72CpW_7HG-61" value="" style="edgeStyle=orthogonalEdgeStyle;rounded=0;orthogonalLoop=1;jettySize=auto;html=1;" edge="1" parent="VIqyfxDn0A3Ios2BhNXK-1" target="VeKx6vhq6wD72CpW_7HG-60">
          <mxGeometry relative="1" as="geometry">
            <mxPoint x="1091" y="1070" as="sourcePoint" />
          </mxGeometry>
        </mxCell>
        <mxCell id="VeKx6vhq6wD72CpW_7HG-59" value="&lt;span&gt;WRITE data_clients INTO&amp;nbsp;./data/clients.txt&lt;/span&gt;" style="shape=document;whiteSpace=wrap;html=1;boundedLbl=1;size=0.25;" vertex="1" parent="VIqyfxDn0A3Ios2BhNXK-1">
          <mxGeometry x="972.5" y="1000" width="237.5" height="80" as="geometry" />
        </mxCell>
        <mxCell id="VeKx6vhq6wD72CpW_7HG-60" value="RETURN" style="ellipse;whiteSpace=wrap;html=1;" vertex="1" parent="VIqyfxDn0A3Ios2BhNXK-1">
          <mxGeometry x="1046.25" y="1140" width="90" height="80" as="geometry" />
        </mxCell>
        <mxCell id="VeKx6vhq6wD72CpW_7HG-62" value="True" style="text;html=1;align=center;verticalAlign=middle;resizable=0;points=[];autosize=1;strokeColor=none;" vertex="1" parent="VIqyfxDn0A3Ios2BhNXK-1">
          <mxGeometry x="255" y="1650" width="40" height="20" as="geometry" />
        </mxCell>
      </root>
    </mxGraphModel>
  </diagram>
</mxfile>
